<svg xmlns="http://www.w3.org/2000/svg" xmlns:xlink="http://www.w3.org/1999/xlink" width="500" zoomAndPan="magnify" viewBox="0 0 375 299.999988" height="400" preserveAspectRatio="xMidYMid meet" version="1.0"><path fill="#000000" d="M 362.5 37.5 L 135.726562 37.5 C 135.386719 36.171875 134.996094 34.859375 134.546875 33.5625 C 134.101562 32.265625 133.601562 30.992188 133.050781 29.738281 C 132.496094 28.480469 131.894531 27.25 131.242188 26.046875 C 130.589844 24.84375 129.886719 23.664062 129.136719 22.519531 C 128.382812 21.371094 127.585938 20.257812 126.746094 19.175781 C 125.902344 18.097656 125.015625 17.050781 124.085938 16.042969 C 123.15625 15.035156 122.1875 14.066406 121.179688 13.140625 C 120.167969 12.210938 119.125 11.328125 118.042969 10.484375 C 116.957031 9.644531 115.84375 8.847656 114.695312 8.101562 C 113.546875 7.351562 112.371094 6.652344 111.164062 6 C 109.957031 5.347656 108.726562 4.746094 107.472656 4.195312 C 106.214844 3.644531 104.941406 3.148438 103.644531 2.703125 C 102.347656 2.257812 101.035156 1.867188 99.703125 1.53125 C 98.375 1.195312 97.035156 0.914062 95.683594 0.6875 C 94.332031 0.464844 92.972656 0.292969 91.605469 0.179688 C 90.238281 0.0664062 88.871094 0.0117188 87.5 0.0117188 C 86.128906 0.0117188 84.761719 0.0664062 83.394531 0.179688 C 82.027344 0.292969 80.667969 0.464844 79.316406 0.6875 C 77.964844 0.914062 76.625 1.195312 75.296875 1.53125 C 73.964844 1.867188 72.652344 2.257812 71.355469 2.703125 C 70.058594 3.148438 68.785156 3.644531 67.527344 4.195312 C 66.273438 4.746094 65.042969 5.347656 63.835938 6 C 62.628906 6.652344 61.453125 7.351562 60.304688 8.101562 C 59.15625 8.847656 58.042969 9.644531 56.957031 10.484375 C 55.875 11.328125 54.832031 12.210938 53.820312 13.140625 C 52.8125 14.066406 51.84375 15.035156 50.914062 16.042969 C 49.984375 17.050781 49.097656 18.097656 48.253906 19.175781 C 47.414062 20.257812 46.617188 21.371094 45.863281 22.519531 C 45.113281 23.664062 44.410156 24.84375 43.757812 26.046875 C 43.105469 27.25 42.503906 28.480469 41.949219 29.738281 C 41.398438 30.992188 40.898438 32.265625 40.453125 33.5625 C 40.003906 34.859375 39.613281 36.171875 39.273438 37.5 L 12.5 37.5 C 11.679688 37.5 10.867188 37.578125 10.0625 37.738281 C 9.257812 37.898438 8.476562 38.136719 7.714844 38.453125 C 6.957031 38.765625 6.238281 39.152344 5.554688 39.605469 C 4.871094 40.0625 4.242188 40.582031 3.660156 41.160156 C 3.082031 41.742188 2.5625 42.371094 2.105469 43.054688 C 1.652344 43.738281 1.265625 44.457031 0.953125 45.214844 C 0.636719 45.976562 0.398438 46.757812 0.238281 47.5625 C 0.078125 48.367188 0 49.179688 0 50 C 0 50.820312 0.078125 51.632812 0.238281 52.4375 C 0.398438 53.242188 0.636719 54.023438 0.953125 54.785156 C 1.265625 55.542969 1.652344 56.261719 2.105469 56.945312 C 2.5625 57.628906 3.082031 58.257812 3.660156 58.839844 C 4.242188 59.417969 4.871094 59.9375 5.554688 60.394531 C 6.238281 60.847656 6.957031 61.234375 7.714844 61.546875 C 8.476562 61.863281 9.257812 62.101562 10.0625 62.261719 C 10.867188 62.417969 11.679688 62.5 12.5 62.5 L 39.273438 62.5 C 39.613281 63.828125 40.003906 65.140625 40.453125 66.4375 C 40.898438 67.734375 41.398438 69.007812 41.949219 70.261719 C 42.503906 71.519531 43.105469 72.746094 43.757812 73.953125 C 44.410156 75.15625 45.113281 76.335938 45.863281 77.480469 C 46.617188 78.628906 47.414062 79.742188 48.253906 80.824219 C 49.097656 81.902344 49.984375 82.949219 50.914062 83.957031 C 51.84375 84.964844 52.8125 85.933594 53.820312 86.859375 C 54.832031 87.789062 55.875 88.671875 56.957031 89.515625 C 58.042969 90.355469 59.15625 91.152344 60.304688 91.898438 C 61.453125 92.648438 62.628906 93.347656 63.835938 94 C 65.042969 94.652344 66.273438 95.253906 67.527344 95.804688 C 68.785156 96.355469 70.058594 96.851562 71.355469 97.296875 C 72.652344 97.742188 73.964844 98.132812 75.296875 98.46875 C 76.625 98.804688 77.964844 99.085938 79.316406 99.3125 C 80.667969 99.535156 82.027344 99.707031 83.394531 99.820312 C 84.761719 99.933594 86.128906 99.988281 87.5 99.988281 C 88.871094 99.988281 90.238281 99.933594 91.605469 99.820312 C 92.972656 99.707031 94.332031 99.535156 95.683594 99.3125 C 97.035156 99.085938 98.375 98.804688 99.703125 98.46875 C 101.035156 98.132812 102.347656 97.742188 103.644531 97.296875 C 104.941406 96.851562 106.214844 96.355469 107.472656 95.804688 C 108.726562 95.253906 109.957031 94.652344 111.164062 94 C 112.371094 93.347656 113.546875 92.648438 114.695312 91.898438 C 115.84375 91.152344 116.957031 90.355469 118.042969 89.515625 C 119.125 88.671875 120.167969 87.789062 121.179688 86.859375 C 122.1875 85.933594 123.15625 84.964844 124.085938 83.957031 C 125.015625 82.949219 125.902344 81.902344 126.746094 80.824219 C 127.585938 79.742188 128.382812 78.628906 129.136719 77.480469 C 129.886719 76.335938 130.589844 75.15625 131.242188 73.953125 C 131.894531 72.746094 132.496094 71.519531 133.050781 70.261719 C 133.601562 69.007812 134.101562 67.734375 134.546875 66.4375 C 134.996094 65.140625 135.386719 63.828125 135.726562 62.5 L 362.5 62.5 C 363.320312 62.5 364.132812 62.417969 364.9375 62.261719 C 365.742188 62.101562 366.523438 61.863281 367.285156 61.546875 C 368.042969 61.234375 368.761719 60.847656 369.445312 60.394531 C 370.128906 59.9375 370.757812 59.417969 371.339844 58.839844 C 371.917969 58.257812 372.4375 57.628906 372.894531 56.945312 C 373.347656 56.261719 373.734375 55.542969 374.046875 54.785156 C 374.363281 54.023438 374.601562 53.242188 374.757812 52.4375 C 374.917969 51.632812 375 50.820312 375 50 C 375 49.179688 374.917969 48.367188 374.757812 47.5625 C 374.601562 46.757812 374.363281 45.976562 374.046875 45.214844 C 373.734375 44.457031 373.347656 43.738281 372.894531 43.054688 C 372.4375 42.371094 371.917969 41.742188 371.339844 41.160156 C 370.757812 40.582031 370.128906 40.0625 369.445312 39.605469 C 368.761719 39.152344 368.042969 38.765625 367.285156 38.453125 C 366.523438 38.136719 365.742188 37.898438 364.9375 37.738281 C 364.132812 37.578125 363.320312 37.5 362.5 37.5 Z M 87.5 75 C 86.679688 75 85.863281 74.960938 85.050781 74.878906 C 84.234375 74.800781 83.425781 74.679688 82.621094 74.519531 C 81.820312 74.359375 81.027344 74.160156 80.242188 73.921875 C 79.460938 73.6875 78.6875 73.410156 77.933594 73.097656 C 77.175781 72.785156 76.4375 72.433594 75.714844 72.046875 C 74.992188 71.660156 74.292969 71.242188 73.609375 70.785156 C 72.929688 70.332031 72.273438 69.84375 71.640625 69.324219 C 71.007812 68.804688 70.402344 68.257812 69.824219 67.675781 C 69.242188 67.097656 68.695312 66.492188 68.175781 65.859375 C 67.65625 65.226562 67.167969 64.570312 66.714844 63.890625 C 66.257812 63.207031 65.839844 62.507812 65.453125 61.785156 C 65.066406 61.0625 64.714844 60.324219 64.402344 59.566406 C 64.089844 58.8125 63.8125 58.039062 63.578125 57.257812 C 63.339844 56.472656 63.140625 55.679688 62.980469 54.878906 C 62.820312 54.074219 62.699219 53.265625 62.621094 52.449219 C 62.539062 51.636719 62.5 50.820312 62.5 50 C 62.5 49.179688 62.539062 48.363281 62.621094 47.550781 C 62.699219 46.734375 62.820312 45.925781 62.980469 45.121094 C 63.140625 44.320312 63.339844 43.527344 63.578125 42.742188 C 63.8125 41.960938 64.089844 41.1875 64.402344 40.433594 C 64.714844 39.675781 65.066406 38.9375 65.453125 38.214844 C 65.839844 37.492188 66.257812 36.792969 66.714844 36.109375 C 67.167969 35.429688 67.65625 34.773438 68.175781 34.140625 C 68.695312 33.507812 69.242188 32.902344 69.824219 32.324219 C 70.402344 31.742188 71.007812 31.195312 71.640625 30.675781 C 72.273438 30.15625 72.929688 29.667969 73.609375 29.214844 C 74.292969 28.757812 74.992188 28.339844 75.714844 27.953125 C 76.4375 27.566406 77.175781 27.214844 77.933594 26.902344 C 78.6875 26.589844 79.460938 26.3125 80.242188 26.078125 C 81.027344 25.839844 81.820312 25.640625 82.621094 25.480469 C 83.425781 25.320312 84.234375 25.199219 85.050781 25.121094 C 85.863281 25.039062 86.679688 25 87.5 25 C 88.320312 25 89.136719 25.039062 89.949219 25.121094 C 90.765625 25.199219 91.574219 25.320312 92.378906 25.480469 C 93.179688 25.640625 93.972656 25.839844 94.757812 26.078125 C 95.539062 26.3125 96.3125 26.589844 97.066406 26.902344 C 97.824219 27.214844 98.5625 27.566406 99.285156 27.953125 C 100.007812 28.339844 100.707031 28.757812 101.390625 29.214844 C 102.070312 29.667969 102.726562 30.15625 103.359375 30.675781 C 103.992188 31.195312 104.597656 31.742188 105.175781 32.324219 C 105.757812 32.902344 106.304688 33.507812 106.824219 34.140625 C 107.34375 34.773438 107.832031 35.429688 108.285156 36.109375 C 108.742188 36.792969 109.160156 37.492188 109.546875 38.214844 C 109.933594 38.9375 110.285156 39.675781 110.597656 40.433594 C 110.910156 41.1875 111.1875 41.960938 111.421875 42.742188 C 111.660156 43.527344 111.859375 44.320312 112.019531 45.121094 C 112.179688 45.925781 112.300781 46.734375 112.378906 47.550781 C 112.460938 48.363281 112.5 49.179688 112.5 50 C 112.5 50.820312 112.460938 51.636719 112.378906 52.449219 C 112.300781 53.265625 112.179688 54.074219 112.019531 54.878906 C 111.859375 55.679688 111.660156 56.472656 111.421875 57.257812 C 111.1875 58.039062 110.910156 58.8125 110.597656 59.566406 C 110.285156 60.324219 109.933594 61.0625 109.546875 61.785156 C 109.160156 62.507812 108.742188 63.207031 108.285156 63.890625 C 107.832031 64.570312 107.34375 65.226562 106.824219 65.859375 C 106.304688 66.492188 105.757812 67.097656 105.175781 67.675781 C 104.597656 68.257812 103.992188 68.804688 103.359375 69.324219 C 102.726562 69.84375 102.070312 70.332031 101.390625 70.785156 C 100.707031 71.242188 100.007812 71.660156 99.285156 72.046875 C 98.5625 72.433594 97.824219 72.785156 97.066406 73.097656 C 96.3125 73.410156 95.539062 73.6875 94.757812 73.921875 C 93.972656 74.160156 93.179688 74.359375 92.378906 74.519531 C 91.574219 74.679688 90.765625 74.800781 89.949219 74.878906 C 89.136719 74.960938 88.320312 75 87.5 75 Z M 87.5 75 " fill-opacity="1" fill-rule="nonzero"/><path fill="#000000" d="M 362.5 237.5 L 198.226562 237.5 C 197.886719 236.171875 197.496094 234.859375 197.046875 233.5625 C 196.601562 232.265625 196.101562 230.992188 195.550781 229.738281 C 194.996094 228.480469 194.394531 227.25 193.742188 226.046875 C 193.089844 224.84375 192.386719 223.664062 191.636719 222.519531 C 190.882812 221.371094 190.085938 220.257812 189.246094 219.175781 C 188.402344 218.097656 187.515625 217.050781 186.585938 216.042969 C 185.65625 215.035156 184.6875 214.066406 183.679688 213.140625 C 182.667969 212.210938 181.625 211.328125 180.542969 210.484375 C 179.457031 209.644531 178.34375 208.847656 177.195312 208.101562 C 176.046875 207.351562 174.871094 206.652344 173.664062 206 C 172.457031 205.347656 171.226562 204.746094 169.972656 204.195312 C 168.714844 203.644531 167.441406 203.148438 166.144531 202.703125 C 164.847656 202.257812 163.535156 201.867188 162.203125 201.53125 C 160.875 201.195312 159.535156 200.914062 158.183594 200.6875 C 156.832031 200.464844 155.472656 200.292969 154.105469 200.179688 C 152.738281 200.066406 151.371094 200.011719 150 200.011719 C 148.628906 200.011719 147.261719 200.066406 145.894531 200.179688 C 144.527344 200.292969 143.167969 200.464844 141.816406 200.6875 C 140.464844 200.914062 139.125 201.195312 137.792969 201.53125 C 136.464844 201.867188 135.152344 202.257812 133.855469 202.703125 C 132.558594 203.148438 131.285156 203.644531 130.027344 204.195312 C 128.773438 204.746094 127.542969 205.347656 126.335938 206 C 125.128906 206.652344 123.953125 207.351562 122.804688 208.101562 C 121.65625 208.847656 120.542969 209.644531 119.457031 210.484375 C 118.375 211.328125 117.332031 212.210938 116.320312 213.140625 C 115.3125 214.066406 114.34375 215.035156 113.414062 216.042969 C 112.484375 217.050781 111.597656 218.09375 110.753906 219.175781 C 109.914062 220.257812 109.117188 221.371094 108.363281 222.519531 C 107.613281 223.664062 106.910156 224.84375 106.257812 226.046875 C 105.605469 227.25 105.003906 228.480469 104.449219 229.738281 C 103.898438 230.992188 103.398438 232.265625 102.953125 233.5625 C 102.503906 234.859375 102.113281 236.171875 101.773438 237.5 L 12.5 237.5 C 11.679688 237.5 10.867188 237.578125 10.0625 237.738281 C 9.257812 237.898438 8.476562 238.136719 7.714844 238.453125 C 6.957031 238.765625 6.238281 239.152344 5.554688 239.605469 C 4.871094 240.0625 4.242188 240.582031 3.660156 241.160156 C 3.082031 241.742188 2.5625 242.371094 2.105469 243.054688 C 1.652344 243.738281 1.265625 244.457031 0.953125 245.214844 C 0.636719 245.976562 0.398438 246.757812 0.238281 247.5625 C 0.078125 248.367188 0 249.179688 0 250 C 0 250.820312 0.078125 251.632812 0.238281 252.4375 C 0.398438 253.242188 0.636719 254.023438 0.953125 254.785156 C 1.265625 255.542969 1.652344 256.261719 2.105469 256.945312 C 2.5625 257.628906 3.082031 258.257812 3.660156 258.839844 C 4.242188 259.417969 4.871094 259.9375 5.554688 260.394531 C 6.238281 260.847656 6.957031 261.234375 7.714844 261.546875 C 8.476562 261.863281 9.257812 262.101562 10.0625 262.257812 C 10.867188 262.417969 11.679688 262.5 12.5 262.5 L 101.773438 262.5 C 102.113281 263.828125 102.503906 265.140625 102.953125 266.4375 C 103.398438 267.734375 103.898438 269.007812 104.449219 270.261719 C 105.003906 271.519531 105.605469 272.746094 106.257812 273.953125 C 106.910156 275.15625 107.613281 276.335938 108.363281 277.480469 C 109.117188 278.628906 109.914062 279.742188 110.753906 280.824219 C 111.597656 281.902344 112.484375 282.949219 113.414062 283.957031 C 114.34375 284.964844 115.3125 285.933594 116.320312 286.859375 C 117.332031 287.789062 118.375 288.671875 119.457031 289.515625 C 120.542969 290.355469 121.65625 291.152344 122.804688 291.898438 C 123.953125 292.648438 125.128906 293.347656 126.335938 294 C 127.542969 294.652344 128.773438 295.253906 130.027344 295.804688 C 131.285156 296.355469 132.558594 296.851562 133.855469 297.296875 C 135.152344 297.742188 136.464844 298.132812 137.796875 298.46875 C 139.125 298.804688 140.464844 299.085938 141.816406 299.3125 C 143.167969 299.535156 144.527344 299.707031 145.894531 299.820312 C 147.261719 299.933594 148.628906 299.988281 150 299.988281 C 151.371094 299.988281 152.738281 299.933594 154.105469 299.820312 C 155.472656 299.707031 156.832031 299.535156 158.183594 299.3125 C 159.535156 299.085938 160.875 298.804688 162.203125 298.46875 C 163.535156 298.132812 164.847656 297.742188 166.144531 297.296875 C 167.441406 296.851562 168.714844 296.355469 169.972656 295.804688 C 171.226562 295.253906 172.457031 294.652344 173.664062 294 C 174.871094 293.347656 176.046875 292.648438 177.195312 291.898438 C 178.34375 291.152344 179.457031 290.355469 180.542969 289.515625 C 181.625 288.671875 182.667969 287.789062 183.679688 286.859375 C 184.6875 285.933594 185.65625 284.964844 186.585938 283.957031 C 187.515625 282.949219 188.402344 281.902344 189.246094 280.824219 C 190.085938 279.742188 190.882812 278.628906 191.636719 277.480469 C 192.386719 276.335938 193.089844 275.15625 193.742188 273.953125 C 194.394531 272.746094 194.996094 271.519531 195.550781 270.261719 C 196.101562 269.007812 196.601562 267.734375 197.046875 266.4375 C 197.496094 265.140625 197.886719 263.828125 198.226562 262.5 L 362.5 262.5 C 363.320312 262.5 364.132812 262.417969 364.9375 262.257812 C 365.742188 262.101562 366.523438 261.863281 367.285156 261.546875 C 368.042969 261.234375 368.761719 260.847656 369.445312 260.394531 C 370.128906 259.9375 370.757812 259.417969 371.339844 258.839844 C 371.917969 258.257812 372.4375 257.628906 372.894531 256.945312 C 373.347656 256.261719 373.734375 255.542969 374.046875 254.785156 C 374.363281 254.023438 374.601562 253.242188 374.757812 252.4375 C 374.917969 251.632812 375 250.820312 375 250 C 375 249.179688 374.917969 248.367188 374.757812 247.5625 C 374.601562 246.757812 374.363281 245.976562 374.046875 245.214844 C 373.734375 244.457031 373.347656 243.738281 372.894531 243.054688 C 372.4375 242.371094 371.917969 241.742188 371.339844 241.160156 C 370.757812 240.582031 370.128906 240.0625 369.445312 239.605469 C 368.761719 239.152344 368.042969 238.765625 367.285156 238.453125 C 366.523438 238.136719 365.742188 237.898438 364.9375 237.738281 C 364.132812 237.578125 363.320312 237.5 362.5 237.5 Z M 150 275 C 149.179688 275 148.363281 274.960938 147.550781 274.878906 C 146.734375 274.800781 145.925781 274.679688 145.121094 274.519531 C 144.320312 274.359375 143.527344 274.160156 142.742188 273.921875 C 141.960938 273.6875 141.1875 273.410156 140.433594 273.097656 C 139.675781 272.785156 138.9375 272.433594 138.214844 272.046875 C 137.492188 271.660156 136.792969 271.242188 136.109375 270.785156 C 135.429688 270.332031 134.773438 269.84375 134.140625 269.324219 C 133.507812 268.804688 132.902344 268.257812 132.324219 267.675781 C 131.742188 267.097656 131.195312 266.492188 130.675781 265.859375 C 130.15625 265.226562 129.667969 264.570312 129.214844 263.890625 C 128.757812 263.207031 128.339844 262.507812 127.953125 261.785156 C 127.566406 261.0625 127.214844 260.324219 126.902344 259.566406 C 126.589844 258.8125 126.3125 258.039062 126.078125 257.257812 C 125.839844 256.472656 125.640625 255.679688 125.480469 254.878906 C 125.320312 254.074219 125.199219 253.265625 125.121094 252.449219 C 125.039062 251.636719 125 250.820312 125 250 C 125 249.179688 125.039062 248.363281 125.121094 247.550781 C 125.199219 246.734375 125.320312 245.925781 125.480469 245.121094 C 125.640625 244.320312 125.839844 243.527344 126.078125 242.742188 C 126.3125 241.960938 126.589844 241.1875 126.902344 240.433594 C 127.214844 239.675781 127.566406 238.9375 127.953125 238.214844 C 128.339844 237.492188 128.757812 236.792969 129.214844 236.109375 C 129.667969 235.429688 130.15625 234.773438 130.675781 234.140625 C 131.195312 233.507812 131.742188 232.902344 132.324219 232.324219 C 132.902344 231.742188 133.507812 231.195312 134.140625 230.675781 C 134.773438 230.15625 135.429688 229.667969 136.109375 229.214844 C 136.792969 228.757812 137.492188 228.339844 138.214844 227.953125 C 138.9375 227.566406 139.675781 227.214844 140.433594 226.902344 C 141.1875 226.589844 141.960938 226.3125 142.742188 226.078125 C 143.527344 225.839844 144.320312 225.640625 145.121094 225.480469 C 145.925781 225.320312 146.734375 225.199219 147.550781 225.121094 C 148.363281 225.039062 149.179688 225 150 225 C 150.820312 225 151.636719 225.039062 152.449219 225.121094 C 153.265625 225.199219 154.074219 225.320312 154.878906 225.480469 C 155.679688 225.640625 156.472656 225.839844 157.257812 226.078125 C 158.039062 226.3125 158.8125 226.589844 159.566406 226.902344 C 160.324219 227.214844 161.0625 227.566406 161.785156 227.953125 C 162.507812 228.339844 163.207031 228.757812 163.890625 229.214844 C 164.570312 229.667969 165.226562 230.15625 165.859375 230.675781 C 166.492188 231.195312 167.097656 231.742188 167.675781 232.324219 C 168.257812 232.902344 168.804688 233.507812 169.324219 234.140625 C 169.84375 234.773438 170.332031 235.429688 170.785156 236.109375 C 171.242188 236.792969 171.660156 237.492188 172.046875 238.214844 C 172.433594 238.9375 172.785156 239.675781 173.097656 240.433594 C 173.410156 241.1875 173.6875 241.960938 173.921875 242.742188 C 174.160156 243.527344 174.359375 244.320312 174.519531 245.121094 C 174.679688 245.925781 174.800781 246.734375 174.878906 247.550781 C 174.960938 248.363281 175 249.179688 175 250 C 175 250.820312 174.960938 251.636719 174.878906 252.449219 C 174.800781 253.265625 174.679688 254.074219 174.519531 254.878906 C 174.359375 255.679688 174.160156 256.472656 173.921875 257.257812 C 173.6875 258.039062 173.410156 258.8125 173.097656 259.566406 C 172.785156 260.324219 172.433594 261.0625 172.046875 261.785156 C 171.660156 262.507812 171.242188 263.207031 170.785156 263.890625 C 170.332031 264.570312 169.84375 265.226562 169.324219 265.859375 C 168.804688 266.492188 168.257812 267.097656 167.675781 267.675781 C 167.097656 268.257812 166.492188 268.804688 165.859375 269.324219 C 165.226562 269.84375 164.570312 270.332031 163.890625 270.785156 C 163.207031 271.242188 162.507812 271.660156 161.785156 272.046875 C 161.0625 272.433594 160.324219 272.785156 159.566406 273.097656 C 158.8125 273.410156 158.039062 273.6875 157.257812 273.921875 C 156.472656 274.160156 155.679688 274.359375 154.878906 274.519531 C 154.074219 274.679688 153.265625 274.800781 152.449219 274.878906 C 151.636719 274.960938 150.820312 275 150 275 Z M 150 275 " fill-opacity="1" fill-rule="nonzero"/><path fill="#000000" d="M 362.5 137.5 L 348.226562 137.5 C 347.886719 136.171875 347.496094 134.859375 347.046875 133.5625 C 346.601562 132.265625 346.101562 130.992188 345.550781 129.738281 C 344.996094 128.480469 344.394531 127.253906 343.742188 126.046875 C 343.085938 124.84375 342.386719 123.664062 341.636719 122.519531 C 340.882812 121.371094 340.085938 120.257812 339.246094 119.175781 C 338.402344 118.097656 337.515625 117.050781 336.585938 116.042969 C 335.65625 115.035156 334.6875 114.066406 333.679688 113.140625 C 332.667969 112.210938 331.625 111.328125 330.539062 110.484375 C 329.457031 109.644531 328.34375 108.847656 327.195312 108.101562 C 326.046875 107.351562 324.871094 106.652344 323.664062 106 C 322.457031 105.347656 321.226562 104.746094 319.972656 104.195312 C 318.714844 103.644531 317.441406 103.148438 316.144531 102.703125 C 314.847656 102.257812 313.535156 101.867188 312.203125 101.53125 C 310.875 101.195312 309.535156 100.914062 308.183594 100.6875 C 306.832031 100.464844 305.472656 100.292969 304.105469 100.179688 C 302.738281 100.066406 301.371094 100.011719 300 100.011719 C 298.628906 100.011719 297.261719 100.066406 295.894531 100.179688 C 294.527344 100.292969 293.167969 100.464844 291.816406 100.6875 C 290.464844 100.914062 289.125 101.195312 287.792969 101.53125 C 286.464844 101.867188 285.152344 102.257812 283.855469 102.703125 C 282.558594 103.148438 281.285156 103.644531 280.027344 104.195312 C 278.773438 104.746094 277.542969 105.347656 276.335938 106 C 275.128906 106.652344 273.953125 107.351562 272.804688 108.101562 C 271.65625 108.847656 270.542969 109.644531 269.457031 110.484375 C 268.375 111.328125 267.332031 112.210938 266.320312 113.140625 C 265.3125 114.066406 264.34375 115.035156 263.414062 116.042969 C 262.484375 117.050781 261.597656 118.097656 260.753906 119.175781 C 259.914062 120.257812 259.117188 121.371094 258.363281 122.519531 C 257.613281 123.664062 256.910156 124.84375 256.257812 126.046875 C 255.605469 127.25 255.003906 128.480469 254.449219 129.738281 C 253.898438 130.992188 253.398438 132.265625 252.953125 133.5625 C 252.503906 134.859375 252.113281 136.171875 251.773438 137.5 L 12.5 137.5 C 11.679688 137.5 10.867188 137.578125 10.0625 137.738281 C 9.257812 137.898438 8.476562 138.136719 7.714844 138.453125 C 6.957031 138.765625 6.238281 139.152344 5.554688 139.605469 C 4.871094 140.0625 4.242188 140.582031 3.660156 141.160156 C 3.082031 141.742188 2.5625 142.371094 2.105469 143.054688 C 1.652344 143.738281 1.265625 144.457031 0.953125 145.214844 C 0.636719 145.976562 0.398438 146.757812 0.238281 147.5625 C 0.078125 148.367188 0 149.179688 0 150 C 0 150.820312 0.078125 151.632812 0.238281 152.4375 C 0.398438 153.242188 0.636719 154.023438 0.953125 154.785156 C 1.265625 155.542969 1.652344 156.261719 2.105469 156.945312 C 2.5625 157.628906 3.082031 158.257812 3.660156 158.839844 C 4.242188 159.417969 4.871094 159.9375 5.554688 160.394531 C 6.238281 160.847656 6.957031 161.234375 7.714844 161.546875 C 8.476562 161.863281 9.257812 162.101562 10.0625 162.257812 C 10.867188 162.417969 11.679688 162.5 12.5 162.5 L 251.773438 162.5 C 252.113281 163.828125 252.503906 165.140625 252.953125 166.4375 C 253.398438 167.734375 253.898438 169.007812 254.449219 170.261719 C 255.003906 171.519531 255.605469 172.746094 256.257812 173.953125 C 256.910156 175.15625 257.613281 176.332031 258.363281 177.480469 C 259.117188 178.628906 259.914062 179.742188 260.753906 180.824219 C 261.597656 181.902344 262.484375 182.949219 263.414062 183.957031 C 264.34375 184.964844 265.3125 185.933594 266.320312 186.859375 C 267.332031 187.789062 268.375 188.671875 269.457031 189.515625 C 270.542969 190.355469 271.65625 191.152344 272.804688 191.898438 C 273.953125 192.648438 275.128906 193.347656 276.335938 194 C 277.542969 194.652344 278.773438 195.253906 280.027344 195.804688 C 281.285156 196.355469 282.558594 196.851562 283.855469 197.296875 C 285.152344 197.742188 286.464844 198.132812 287.792969 198.46875 C 289.125 198.804688 290.464844 199.085938 291.816406 199.3125 C 293.167969 199.535156 294.527344 199.707031 295.894531 199.820312 C 297.261719 199.933594 298.628906 199.988281 300 199.988281 C 301.371094 199.988281 302.738281 199.933594 304.105469 199.820312 C 305.472656 199.707031 306.832031 199.535156 308.183594 199.3125 C 309.535156 199.085938 310.875 198.804688 312.203125 198.46875 C 313.535156 198.132812 314.847656 197.742188 316.144531 197.296875 C 317.441406 196.851562 318.714844 196.355469 319.972656 195.804688 C 321.226562 195.253906 322.457031 194.652344 323.664062 194 C 324.871094 193.347656 326.046875 192.648438 327.195312 191.898438 C 328.34375 191.152344 329.457031 190.355469 330.539062 189.515625 C 331.625 188.671875 332.667969 187.789062 333.679688 186.859375 C 334.6875 185.933594 335.65625 184.964844 336.585938 183.957031 C 337.515625 182.949219 338.402344 181.902344 339.246094 180.824219 C 340.085938 179.742188 340.882812 178.628906 341.636719 177.480469 C 342.386719 176.332031 343.085938 175.15625 343.742188 173.953125 C 344.394531 172.746094 344.996094 171.519531 345.550781 170.261719 C 346.101562 169.007812 346.601562 167.734375 347.046875 166.4375 C 347.496094 165.140625 347.886719 163.828125 348.226562 162.5 L 362.5 162.5 C 363.320312 162.5 364.132812 162.417969 364.9375 162.257812 C 365.742188 162.101562 366.523438 161.863281 367.285156 161.546875 C 368.042969 161.234375 368.761719 160.847656 369.445312 160.394531 C 370.128906 159.9375 370.757812 159.417969 371.339844 158.839844 C 371.917969 158.257812 372.4375 157.628906 372.894531 156.945312 C 373.347656 156.261719 373.734375 155.542969 374.046875 154.785156 C 374.363281 154.023438 374.601562 153.242188 374.757812 152.4375 C 374.917969 151.632812 375 150.820312 375 150 C 375 149.179688 374.917969 148.367188 374.757812 147.5625 C 374.601562 146.757812 374.363281 145.976562 374.046875 145.214844 C 373.734375 144.457031 373.347656 143.738281 372.894531 143.054688 C 372.4375 142.371094 371.917969 141.742188 371.339844 141.160156 C 370.757812 140.582031 370.128906 140.0625 369.445312 139.605469 C 368.761719 139.152344 368.042969 138.765625 367.285156 138.453125 C 366.523438 138.136719 365.742188 137.898438 364.9375 137.738281 C 364.132812 137.578125 363.320312 137.5 362.5 137.5 Z M 300 175 C 299.179688 175 298.363281 174.960938 297.550781 174.878906 C 296.734375 174.800781 295.925781 174.679688 295.121094 174.519531 C 294.320312 174.359375 293.527344 174.160156 292.742188 173.921875 C 291.960938 173.6875 291.1875 173.410156 290.433594 173.097656 C 289.675781 172.785156 288.9375 172.433594 288.214844 172.046875 C 287.492188 171.660156 286.792969 171.242188 286.109375 170.785156 C 285.429688 170.332031 284.773438 169.84375 284.140625 169.324219 C 283.507812 168.804688 282.902344 168.257812 282.324219 167.675781 C 281.742188 167.097656 281.195312 166.492188 280.675781 165.859375 C 280.15625 165.226562 279.667969 164.570312 279.214844 163.890625 C 278.757812 163.207031 278.339844 162.507812 277.953125 161.785156 C 277.566406 161.0625 277.214844 160.324219 276.902344 159.566406 C 276.589844 158.8125 276.3125 158.039062 276.078125 157.257812 C 275.839844 156.472656 275.640625 155.679688 275.480469 154.878906 C 275.320312 154.074219 275.199219 153.265625 275.121094 152.449219 C 275.039062 151.636719 275 150.820312 275 150 C 275 149.179688 275.039062 148.363281 275.121094 147.550781 C 275.199219 146.734375 275.320312 145.925781 275.480469 145.121094 C 275.640625 144.320312 275.839844 143.527344 276.078125 142.742188 C 276.3125 141.960938 276.589844 141.1875 276.902344 140.433594 C 277.214844 139.675781 277.566406 138.9375 277.953125 138.214844 C 278.339844 137.492188 278.757812 136.792969 279.214844 136.109375 C 279.667969 135.429688 280.15625 134.773438 280.675781 134.140625 C 281.195312 133.507812 281.742188 132.902344 282.324219 132.324219 C 282.902344 131.742188 283.507812 131.195312 284.140625 130.675781 C 284.773438 130.15625 285.429688 129.667969 286.109375 129.214844 C 286.792969 128.757812 287.492188 128.339844 288.214844 127.953125 C 288.9375 127.566406 289.675781 127.214844 290.433594 126.902344 C 291.1875 126.589844 291.960938 126.3125 292.742188 126.078125 C 293.527344 125.839844 294.320312 125.640625 295.121094 125.480469 C 295.925781 125.320312 296.734375 125.199219 297.550781 125.121094 C 298.363281 125.039062 299.179688 125 300 125 C 300.820312 125 301.636719 125.039062 302.449219 125.121094 C 303.265625 125.199219 304.074219 125.320312 304.878906 125.480469 C 305.679688 125.640625 306.472656 125.839844 307.257812 126.078125 C 308.039062 126.3125 308.8125 126.589844 309.566406 126.902344 C 310.324219 127.214844 311.0625 127.566406 311.785156 127.953125 C 312.507812 128.339844 313.207031 128.757812 313.890625 129.214844 C 314.570312 129.667969 315.226562 130.15625 315.859375 130.675781 C 316.492188 131.195312 317.097656 131.742188 317.675781 132.324219 C 318.257812 132.902344 318.804688 133.507812 319.324219 134.140625 C 319.84375 134.773438 320.332031 135.429688 320.785156 136.109375 C 321.242188 136.792969 321.660156 137.492188 322.046875 138.214844 C 322.433594 138.9375 322.785156 139.675781 323.097656 140.433594 C 323.410156 141.1875 323.6875 141.960938 323.921875 142.742188 C 324.160156 143.527344 324.359375 144.320312 324.519531 145.121094 C 324.679688 145.925781 324.800781 146.734375 324.878906 147.550781 C 324.960938 148.363281 325 149.179688 325 150 C 325 150.820312 324.960938 151.636719 324.878906 152.449219 C 324.800781 153.265625 324.679688 154.074219 324.519531 154.878906 C 324.359375 155.679688 324.160156 156.472656 323.921875 157.257812 C 323.6875 158.039062 323.410156 158.8125 323.097656 159.566406 C 322.785156 160.324219 322.433594 161.0625 322.046875 161.785156 C 321.660156 162.507812 321.242188 163.207031 320.785156 163.890625 C 320.332031 164.570312 319.84375 165.226562 319.324219 165.859375 C 318.804688 166.492188 318.257812 167.097656 317.675781 167.675781 C 317.097656 168.257812 316.492188 168.804688 315.859375 169.324219 C 315.226562 169.84375 314.570312 170.332031 313.890625 170.785156 C 313.207031 171.242188 312.507812 171.660156 311.785156 172.046875 C 311.0625 172.433594 310.324219 172.785156 309.566406 173.097656 C 308.8125 173.410156 308.039062 173.6875 307.257812 173.921875 C 306.472656 174.160156 305.679688 174.359375 304.878906 174.519531 C 304.074219 174.679688 303.265625 174.800781 302.449219 174.878906 C 301.636719 174.960938 300.820312 175 300 175 Z M 300 175 " fill-opacity="1" fill-rule="nonzero"/></svg>