<svg xmlns="http://www.w3.org/2000/svg" xmlns:xlink="http://www.w3.org/1999/xlink" width="500" zoomAndPan="magnify" viewBox="0 0 375 374.999991" height="500" preserveAspectRatio="xMidYMid meet" version="1.0"><defs><clipPath id="003c03bcbe"><path d="M 104 66.9375 L 264.585938 66.9375 L 264.585938 367 L 104 367 Z M 104 66.9375 " clip-rule="nonzero"/></clipPath></defs><path fill="#000000" d="M 209.90625 54.644531 C 209.90625 55.257812 209.875 55.871094 209.816406 56.480469 C 209.757812 57.09375 209.667969 57.699219 209.546875 58.300781 C 209.429688 58.90625 209.28125 59.5 209.105469 60.085938 C 208.929688 60.675781 208.726562 61.253906 208.492188 61.820312 C 208.261719 62.386719 208 62.941406 207.714844 63.484375 C 207.429688 64.027344 207.117188 64.550781 206.777344 65.0625 C 206.441406 65.574219 206.078125 66.066406 205.695312 66.542969 C 205.308594 67.015625 204.902344 67.46875 204.472656 67.90625 C 204.042969 68.339844 203.59375 68.75 203.121094 69.140625 C 202.652344 69.53125 202.164062 69.894531 201.660156 70.238281 C 201.15625 70.578125 200.632812 70.894531 200.097656 71.183594 C 199.5625 71.472656 199.015625 71.734375 198.453125 71.96875 C 197.890625 72.207031 197.320312 72.410156 196.738281 72.589844 C 196.15625 72.769531 195.570312 72.917969 194.972656 73.039062 C 194.375 73.15625 193.777344 73.246094 193.171875 73.308594 C 192.566406 73.367188 191.960938 73.398438 191.351562 73.398438 C 190.746094 73.398438 190.140625 73.367188 189.535156 73.308594 C 188.929688 73.246094 188.332031 73.15625 187.734375 73.039062 C 187.136719 72.917969 186.550781 72.769531 185.96875 72.589844 C 185.386719 72.410156 184.816406 72.207031 184.253906 71.96875 C 183.691406 71.734375 183.144531 71.472656 182.609375 71.183594 C 182.074219 70.894531 181.550781 70.578125 181.046875 70.238281 C 180.542969 69.894531 180.054688 69.53125 179.585938 69.140625 C 179.113281 68.75 178.664062 68.339844 178.234375 67.90625 C 177.804688 67.46875 177.398438 67.015625 177.011719 66.542969 C 176.628906 66.066406 176.265625 65.574219 175.929688 65.0625 C 175.589844 64.550781 175.277344 64.027344 174.992188 63.484375 C 174.707031 62.941406 174.445312 62.386719 174.214844 61.820312 C 173.980469 61.253906 173.777344 60.675781 173.601562 60.085938 C 173.425781 59.5 173.277344 58.90625 173.160156 58.300781 C 173.039062 57.699219 172.949219 57.09375 172.890625 56.480469 C 172.832031 55.871094 172.800781 55.257812 172.800781 54.644531 C 172.800781 54.03125 172.832031 53.417969 172.890625 52.804688 C 172.949219 52.195312 173.039062 51.585938 173.160156 50.984375 C 173.277344 50.382812 173.425781 49.789062 173.601562 49.199219 C 173.777344 48.613281 173.980469 48.035156 174.214844 47.46875 C 174.445312 46.898438 174.707031 46.34375 174.992188 45.804688 C 175.277344 45.261719 175.589844 44.734375 175.929688 44.226562 C 176.265625 43.714844 176.628906 43.222656 177.011719 42.746094 C 177.398438 42.273438 177.804688 41.816406 178.234375 41.382812 C 178.664062 40.949219 179.113281 40.535156 179.585938 40.148438 C 180.054688 39.757812 180.542969 39.390625 181.046875 39.050781 C 181.550781 38.710938 182.074219 38.394531 182.609375 38.105469 C 183.144531 37.816406 183.691406 37.550781 184.253906 37.316406 C 184.816406 37.082031 185.386719 36.875 185.96875 36.699219 C 186.550781 36.519531 187.136719 36.371094 187.734375 36.25 C 188.332031 36.128906 188.929688 36.039062 189.535156 35.980469 C 190.140625 35.921875 190.746094 35.890625 191.351562 35.890625 C 191.960938 35.890625 192.566406 35.921875 193.171875 35.984375 C 193.777344 36.042969 194.375 36.132812 194.972656 36.253906 C 195.566406 36.375 196.15625 36.523438 196.734375 36.703125 C 197.316406 36.882812 197.886719 37.089844 198.449219 37.324219 C 199.011719 37.558594 199.558594 37.820312 200.09375 38.113281 C 200.628906 38.402344 201.148438 38.714844 201.65625 39.058594 C 202.160156 39.398438 202.648438 39.765625 203.117188 40.152344 C 203.585938 40.542969 204.035156 40.957031 204.464844 41.390625 C 204.894531 41.824219 205.300781 42.277344 205.6875 42.753906 C 206.070312 43.226562 206.433594 43.71875 206.769531 44.230469 C 207.109375 44.742188 207.421875 45.265625 207.707031 45.808594 C 207.992188 46.347656 208.253906 46.902344 208.488281 47.472656 C 208.71875 48.039062 208.925781 48.613281 209.101562 49.203125 C 209.277344 49.789062 209.425781 50.386719 209.542969 50.988281 C 209.664062 51.589844 209.753906 52.195312 209.8125 52.804688 C 209.875 53.417969 209.902344 54.03125 209.90625 54.644531 Z M 258.53125 3.695312 C 258.296875 3.386719 258.039062 3.101562 257.753906 2.839844 C 257.46875 2.582031 257.160156 2.351562 256.828125 2.152344 C 256.496094 1.957031 256.148438 1.792969 255.785156 1.664062 C 255.425781 1.535156 255.050781 1.441406 254.671875 1.386719 C 254.289062 1.332031 253.90625 1.316406 253.523438 1.335938 C 253.140625 1.359375 252.761719 1.417969 252.390625 1.511719 C 252.015625 1.609375 251.65625 1.742188 251.308594 1.910156 C 250.960938 2.078125 250.636719 2.277344 250.328125 2.511719 C 250.019531 2.746094 249.738281 3.007812 249.480469 3.296875 C 249.222656 3.585938 248.996094 3.898438 248.800781 4.234375 C 248.605469 4.566406 248.445312 4.917969 248.316406 5.285156 C 248.1875 5.652344 248.097656 6.027344 248.042969 6.414062 C 247.988281 6.796875 247.972656 7.183594 247.992188 7.574219 C 248.015625 7.960938 248.070312 8.34375 248.167969 8.71875 C 248.261719 9.097656 248.394531 9.460938 248.558594 9.8125 C 248.726562 10.160156 248.925781 10.492188 249.15625 10.804688 C 250.320312 12.371094 251.417969 13.984375 252.453125 15.640625 C 253.484375 17.296875 254.453125 18.996094 255.351562 20.730469 C 256.25 22.464844 257.078125 24.234375 257.839844 26.039062 C 258.597656 27.839844 259.28125 29.671875 259.894531 31.53125 C 260.507812 33.390625 261.046875 35.269531 261.507812 37.171875 C 261.972656 39.078125 262.359375 40.996094 262.667969 42.929688 C 262.980469 44.863281 263.210938 46.804688 263.367188 48.757812 C 263.523438 50.710938 263.601562 52.667969 263.601562 54.628906 C 263.601562 56.585938 263.523438 58.542969 263.367188 60.496094 C 263.210938 62.449219 262.980469 64.394531 262.667969 66.328125 C 262.359375 68.261719 261.972656 70.179688 261.507812 72.082031 C 261.046875 73.984375 260.507812 75.867188 259.894531 77.726562 C 259.28125 79.582031 258.597656 81.414062 257.839844 83.21875 C 257.078125 85.019531 256.25 86.789062 255.351562 88.527344 C 254.453125 90.261719 253.484375 91.957031 252.453125 93.617188 C 251.417969 95.273438 250.320312 96.886719 249.15625 98.453125 C 248.925781 98.765625 248.726562 99.09375 248.558594 99.445312 C 248.394531 99.796875 248.261719 100.160156 248.167969 100.535156 C 248.070312 100.914062 248.015625 101.296875 247.992188 101.683594 C 247.972656 102.070312 247.988281 102.457031 248.042969 102.84375 C 248.097656 103.230469 248.1875 103.605469 248.316406 103.972656 C 248.445312 104.339844 248.605469 104.6875 248.800781 105.023438 C 248.996094 105.359375 249.222656 105.671875 249.480469 105.960938 C 249.738281 106.25 250.019531 106.511719 250.328125 106.742188 C 250.636719 106.976562 250.960938 107.179688 251.308594 107.347656 C 251.65625 107.515625 252.015625 107.648438 252.390625 107.742188 C 252.761719 107.839844 253.140625 107.898438 253.523438 107.917969 C 253.90625 107.941406 254.289062 107.921875 254.671875 107.867188 C 255.050781 107.8125 255.425781 107.722656 255.785156 107.59375 C 256.148438 107.464844 256.496094 107.300781 256.828125 107.101562 C 257.160156 106.902344 257.46875 106.675781 257.753906 106.414062 C 258.039062 106.15625 258.296875 105.871094 258.53125 105.558594 C 259.878906 103.738281 261.15625 101.863281 262.359375 99.9375 C 263.5625 98.011719 264.683594 96.039062 265.730469 94.023438 C 266.773438 92.003906 267.738281 89.949219 268.617188 87.855469 C 269.5 85.757812 270.296875 83.628906 271.007812 81.46875 C 271.722656 79.308594 272.347656 77.125 272.882812 74.914062 C 273.421875 72.703125 273.871094 70.472656 274.230469 68.222656 C 274.59375 65.976562 274.863281 63.71875 275.042969 61.449219 C 275.226562 59.179688 275.316406 56.90625 275.316406 54.628906 C 275.316406 52.351562 275.226562 50.078125 275.042969 47.808594 C 274.863281 45.539062 274.59375 43.28125 274.230469 41.03125 C 273.871094 38.785156 273.421875 36.554688 272.882812 34.34375 C 272.347656 32.132812 271.722656 29.945312 271.007812 27.785156 C 270.296875 25.625 269.5 23.496094 268.617188 21.402344 C 267.738281 19.308594 266.773438 17.25 265.730469 15.234375 C 264.683594 13.214844 263.5625 11.246094 262.359375 9.320312 C 261.15625 7.394531 259.878906 5.519531 258.53125 3.695312 Z M 132.386719 2.527344 C 132.078125 2.296875 131.753906 2.09375 131.40625 1.925781 C 131.058594 1.757812 130.699219 1.625 130.328125 1.53125 C 129.953125 1.433594 129.574219 1.375 129.191406 1.351562 C 128.808594 1.332031 128.425781 1.347656 128.046875 1.402344 C 127.664062 1.457031 127.292969 1.550781 126.929688 1.675781 C 126.566406 1.804688 126.21875 1.96875 125.890625 2.167969 C 125.558594 2.363281 125.25 2.59375 124.960938 2.851562 C 124.675781 3.109375 124.417969 3.394531 124.183594 3.703125 C 122.835938 5.527344 121.558594 7.402344 120.355469 9.328125 C 119.152344 11.253906 118.03125 13.222656 116.984375 15.242188 C 115.941406 17.257812 114.976562 19.3125 114.09375 21.410156 C 113.214844 23.503906 112.417969 25.632812 111.703125 27.792969 C 110.992188 29.953125 110.367188 32.140625 109.828125 34.351562 C 109.289062 36.5625 108.839844 38.792969 108.480469 41.039062 C 108.121094 43.289062 107.847656 45.546875 107.667969 47.816406 C 107.488281 50.085938 107.398438 52.359375 107.398438 54.636719 C 107.398438 56.914062 107.488281 59.1875 107.667969 61.457031 C 107.847656 63.726562 108.121094 65.984375 108.480469 68.234375 C 108.839844 70.480469 109.289062 72.710938 109.828125 74.921875 C 110.367188 77.132812 110.992188 79.316406 111.703125 81.476562 C 112.417969 83.636719 113.214844 85.765625 114.09375 87.863281 C 114.976562 89.957031 115.941406 92.015625 116.984375 94.03125 C 118.03125 96.046875 119.152344 98.019531 120.355469 99.945312 C 121.558594 101.871094 122.835938 103.746094 124.183594 105.566406 C 124.414062 105.878906 124.675781 106.164062 124.960938 106.421875 C 125.246094 106.683594 125.554688 106.910156 125.886719 107.109375 C 126.21875 107.308594 126.566406 107.472656 126.929688 107.601562 C 127.289062 107.730469 127.664062 107.820312 128.042969 107.875 C 128.425781 107.933594 128.804688 107.949219 129.191406 107.925781 C 129.574219 107.90625 129.953125 107.847656 130.324219 107.75 C 130.699219 107.65625 131.058594 107.523438 131.40625 107.355469 C 131.75 107.1875 132.078125 106.984375 132.386719 106.75 C 132.695312 106.519531 132.976562 106.257812 133.234375 105.96875 C 133.492188 105.679688 133.71875 105.367188 133.914062 105.03125 C 134.109375 104.695312 134.269531 104.347656 134.398438 103.980469 C 134.527344 103.613281 134.617188 103.238281 134.671875 102.851562 C 134.726562 102.464844 134.742188 102.078125 134.722656 101.691406 C 134.699219 101.304688 134.640625 100.921875 134.546875 100.542969 C 134.453125 100.167969 134.320312 99.804688 134.152344 99.453125 C 133.988281 99.101562 133.789062 98.773438 133.558594 98.460938 C 132.394531 96.894531 131.296875 95.28125 130.261719 93.625 C 129.230469 91.964844 128.261719 90.269531 127.363281 88.535156 C 126.464844 86.796875 125.632812 85.027344 124.875 83.226562 C 124.117188 81.421875 123.429688 79.59375 122.820312 77.734375 C 122.207031 75.875 121.667969 73.992188 121.203125 72.089844 C 120.742188 70.1875 120.355469 68.269531 120.042969 66.335938 C 119.734375 64.402344 119.5 62.457031 119.34375 60.503906 C 119.191406 58.550781 119.113281 56.59375 119.113281 54.636719 C 119.113281 52.675781 119.191406 50.71875 119.34375 48.765625 C 119.5 46.8125 119.734375 44.871094 120.042969 42.9375 C 120.355469 41.003906 120.742188 39.085938 121.203125 37.179688 C 121.667969 35.277344 122.207031 33.398438 122.820312 31.539062 C 123.429688 29.679688 124.117188 27.847656 124.875 26.046875 C 125.632812 24.242188 126.464844 22.472656 127.363281 20.738281 C 128.261719 19.003906 129.230469 17.304688 130.261719 15.648438 C 131.296875 13.992188 132.394531 12.378906 133.558594 10.8125 C 133.789062 10.5 133.988281 10.167969 134.152344 9.820312 C 134.320312 9.46875 134.449219 9.105469 134.542969 8.730469 C 134.640625 8.351562 134.695312 7.972656 134.71875 7.582031 C 134.738281 7.195312 134.722656 6.808594 134.667969 6.425781 C 134.613281 6.039062 134.523438 5.664062 134.394531 5.296875 C 134.265625 4.933594 134.105469 4.582031 133.910156 4.246094 C 133.714844 3.914062 133.488281 3.601562 133.230469 3.3125 C 132.976562 3.023438 132.695312 2.761719 132.386719 2.527344 Z M 225.339844 21.480469 C 225.03125 21.710938 224.75 21.972656 224.492188 22.261719 C 224.234375 22.550781 224.007812 22.863281 223.8125 23.199219 C 223.617188 23.53125 223.453125 23.882812 223.324219 24.25 C 223.199219 24.617188 223.105469 24.992188 223.050781 25.378906 C 222.996094 25.761719 222.980469 26.148438 223 26.539062 C 223.019531 26.925781 223.078125 27.308594 223.171875 27.6875 C 223.269531 28.0625 223.398438 28.425781 223.566406 28.777344 C 223.730469 29.128906 223.929688 29.460938 224.160156 29.769531 C 224.820312 30.660156 225.445312 31.574219 226.03125 32.515625 C 226.617188 33.457031 227.167969 34.417969 227.679688 35.402344 C 228.1875 36.390625 228.660156 37.394531 229.089844 38.417969 C 229.519531 39.441406 229.910156 40.480469 230.257812 41.535156 C 230.605469 42.589844 230.910156 43.65625 231.175781 44.738281 C 231.4375 45.816406 231.65625 46.90625 231.832031 48.003906 C 232.007812 49.101562 232.140625 50.203125 232.230469 51.3125 C 232.316406 52.421875 232.363281 53.53125 232.363281 54.644531 C 232.363281 55.757812 232.316406 56.867188 232.230469 57.976562 C 232.140625 59.082031 232.007812 60.1875 231.832031 61.285156 C 231.65625 62.382812 231.4375 63.472656 231.175781 64.550781 C 230.910156 65.628906 230.605469 66.699219 230.257812 67.753906 C 229.910156 68.808594 229.519531 69.847656 229.089844 70.871094 C 228.660156 71.894531 228.1875 72.898438 227.679688 73.882812 C 227.167969 74.867188 226.617188 75.832031 226.03125 76.773438 C 225.445312 77.710938 224.820312 78.628906 224.160156 79.515625 C 223.929688 79.828125 223.730469 80.160156 223.566406 80.511719 C 223.402344 80.859375 223.269531 81.222656 223.175781 81.601562 C 223.082031 81.976562 223.023438 82.359375 223 82.746094 C 222.980469 83.136719 223 83.519531 223.054688 83.90625 C 223.109375 84.289062 223.199219 84.664062 223.328125 85.03125 C 223.453125 85.398438 223.617188 85.75 223.8125 86.082031 C 224.007812 86.417969 224.234375 86.730469 224.492188 87.019531 C 224.746094 87.308594 225.03125 87.570312 225.335938 87.800781 C 225.644531 88.035156 225.972656 88.234375 226.316406 88.402344 C 226.664062 88.570312 227.023438 88.703125 227.394531 88.800781 C 227.769531 88.898438 228.144531 88.957031 228.53125 88.976562 C 228.914062 89 229.296875 88.980469 229.675781 88.925781 C 230.058594 88.871094 230.429688 88.78125 230.792969 88.652344 C 231.152344 88.523438 231.5 88.359375 231.832031 88.164062 C 232.164062 87.964844 232.472656 87.738281 232.757812 87.476562 C 233.042969 87.21875 233.300781 86.933594 233.535156 86.625 C 234.382812 85.480469 235.183594 84.304688 235.9375 83.09375 C 236.695312 81.886719 237.398438 80.648438 238.054688 79.378906 C 238.710938 78.113281 239.316406 76.824219 239.871094 75.507812 C 240.425781 74.191406 240.925781 72.855469 241.371094 71.5 C 241.820312 70.140625 242.210938 68.769531 242.550781 67.382812 C 242.886719 65.992188 243.167969 64.59375 243.394531 63.179688 C 243.621094 61.769531 243.792969 60.351562 243.90625 58.925781 C 244.019531 57.5 244.078125 56.074219 244.078125 54.644531 C 244.078125 53.214844 244.019531 51.785156 243.90625 50.359375 C 243.792969 48.9375 243.621094 47.519531 243.394531 46.105469 C 243.167969 44.695312 242.886719 43.296875 242.550781 41.90625 C 242.210938 40.519531 241.820312 39.144531 241.371094 37.789062 C 240.925781 36.433594 240.425781 35.097656 239.871094 33.78125 C 239.316406 32.464844 238.710938 31.171875 238.054688 29.90625 C 237.398438 28.640625 236.695312 27.402344 235.9375 26.195312 C 235.183594 24.984375 234.382812 23.808594 233.535156 22.664062 C 233.300781 22.351562 233.042969 22.066406 232.757812 21.808594 C 232.46875 21.550781 232.160156 21.320312 231.828125 21.121094 C 231.496094 20.925781 231.148438 20.761719 230.789062 20.632812 C 230.425781 20.503906 230.050781 20.410156 229.671875 20.355469 C 229.289062 20.300781 228.90625 20.285156 228.523438 20.304688 C 228.140625 20.328125 227.761719 20.386719 227.386719 20.480469 C 227.015625 20.578125 226.65625 20.710938 226.308594 20.878906 C 225.960938 21.046875 225.632812 21.246094 225.324219 21.480469 Z M 157.382812 21.480469 C 157.074219 21.246094 156.746094 21.046875 156.402344 20.878906 C 156.054688 20.710938 155.695312 20.578125 155.320312 20.484375 C 154.949219 20.386719 154.570312 20.328125 154.1875 20.308594 C 153.804688 20.285156 153.421875 20.300781 153.042969 20.355469 C 152.660156 20.410156 152.289062 20.503906 151.925781 20.632812 C 151.5625 20.761719 151.21875 20.921875 150.886719 21.121094 C 150.554688 21.316406 150.246094 21.542969 149.957031 21.804688 C 149.671875 22.0625 149.414062 22.347656 149.179688 22.65625 C 148.332031 23.800781 147.53125 24.976562 146.777344 26.1875 C 146.019531 27.394531 145.316406 28.632812 144.660156 29.898438 C 144.003906 31.164062 143.398438 32.457031 142.84375 33.773438 C 142.289062 35.089844 141.789062 36.425781 141.34375 37.78125 C 140.894531 39.136719 140.503906 40.511719 140.164062 41.898438 C 139.828125 43.289062 139.546875 44.6875 139.320312 46.097656 C 139.09375 47.511719 138.921875 48.929688 138.808594 50.351562 C 138.695312 51.777344 138.636719 53.207031 138.636719 54.636719 C 138.636719 56.066406 138.695312 57.492188 138.808594 58.917969 C 138.921875 60.34375 139.09375 61.761719 139.320312 63.171875 C 139.546875 64.585938 139.828125 65.984375 140.164062 67.375 C 140.503906 68.761719 140.894531 70.132812 141.34375 71.492188 C 141.789062 72.847656 142.289062 74.183594 142.84375 75.5 C 143.398438 76.816406 144.003906 78.105469 144.660156 79.371094 C 145.316406 80.640625 146.019531 81.878906 146.777344 83.085938 C 147.53125 84.296875 148.332031 85.472656 149.179688 86.617188 C 149.410156 86.925781 149.671875 87.210938 149.957031 87.472656 C 150.242188 87.730469 150.550781 87.957031 150.882812 88.15625 C 151.214844 88.355469 151.5625 88.515625 151.921875 88.644531 C 152.285156 88.773438 152.65625 88.867188 153.039062 88.921875 C 153.417969 88.976562 153.800781 88.992188 154.183594 88.972656 C 154.570312 88.949219 154.945312 88.890625 155.320312 88.792969 C 155.691406 88.699219 156.050781 88.566406 156.398438 88.398438 C 156.746094 88.230469 157.070312 88.027344 157.378906 87.796875 C 157.6875 87.5625 157.96875 87.300781 158.226562 87.011719 C 158.480469 86.722656 158.707031 86.410156 158.902344 86.078125 C 159.101562 85.742188 159.261719 85.390625 159.390625 85.023438 C 159.515625 84.660156 159.609375 84.28125 159.664062 83.898438 C 159.71875 83.515625 159.734375 83.128906 159.714844 82.738281 C 159.691406 82.351562 159.636719 81.96875 159.539062 81.59375 C 159.445312 81.214844 159.316406 80.851562 159.148438 80.503906 C 158.984375 80.152344 158.785156 79.820312 158.554688 79.507812 C 157.894531 78.621094 157.269531 77.703125 156.683594 76.765625 C 156.097656 75.824219 155.546875 74.859375 155.039062 73.875 C 154.527344 72.890625 154.058594 71.886719 153.628906 70.863281 C 153.195312 69.839844 152.808594 68.800781 152.460938 67.746094 C 152.113281 66.691406 151.808594 65.621094 151.542969 64.542969 C 151.28125 63.460938 151.0625 62.375 150.886719 61.277344 C 150.710938 60.179688 150.578125 59.074219 150.488281 57.96875 C 150.402344 56.859375 150.355469 55.75 150.355469 54.636719 C 150.355469 53.523438 150.402344 52.414062 150.488281 51.304688 C 150.578125 50.195312 150.710938 49.09375 150.886719 47.996094 C 151.0625 46.898438 151.28125 45.808594 151.542969 44.730469 C 151.808594 43.648438 152.113281 42.582031 152.460938 41.527344 C 152.808594 40.472656 153.195312 39.433594 153.628906 38.410156 C 154.058594 37.386719 154.527344 36.382812 155.039062 35.398438 C 155.546875 34.410156 156.097656 33.449219 156.683594 32.507812 C 157.269531 31.566406 157.894531 30.652344 158.554688 29.761719 C 158.785156 29.453125 158.984375 29.121094 159.148438 28.769531 C 159.3125 28.421875 159.445312 28.058594 159.539062 27.679688 C 159.636719 27.304688 159.691406 26.921875 159.714844 26.535156 C 159.734375 26.148438 159.71875 25.761719 159.664062 25.375 C 159.609375 24.992188 159.519531 24.617188 159.390625 24.25 C 159.261719 23.882812 159.101562 23.53125 158.90625 23.199219 C 158.710938 22.863281 158.484375 22.550781 158.226562 22.261719 C 157.972656 21.972656 157.691406 21.710938 157.382812 21.480469 Z M 157.382812 21.480469 " fill-opacity="1" fill-rule="nonzero"/><g clip-path="url(#003c03bcbe)"><path fill="#000000" d="M 113.582031 359.585938 C 94.988281 342.835938 105.160156 315.550781 135.855469 299.851562 C 146.09375 294.617188 153.644531 292.347656 167.152344 292.75 C 175.34375 292.960938 184.765625 297.695312 184.765625 297.695312 C 184.765625 237.453125 184.539062 123.257812 184.539062 66.96875 C 187.867188 66.984375 189.996094 66.945312 194.660156 66.945312 C 194.660156 70.257812 194.613281 72.636719 194.613281 75.574219 C 194.613281 78.433594 194.816406 80.292969 195.089844 82.089844 C 198.3125 103.109375 203.007812 111.382812 226.441406 137.355469 C 256.082031 170.207031 264.6875 189.996094 264.511719 216.273438 C 264.347656 240.925781 242.722656 293.722656 237.808594 291.535156 C 244.644531 273.0625 253.863281 253.136719 256.316406 236.460938 C 259.3125 216.082031 251.054688 187.324219 237.769531 172.152344 C 226.84375 159.671875 201.675781 148.511719 194.8125 148.511719 C 194.8125 148.511719 194.519531 269.871094 194.519531 315.882812 C 194.519531 323.804688 187.363281 337.238281 183.332031 342.066406 C 164.941406 364.09375 129.644531 374.066406 113.578125 359.589844 Z M 113.582031 359.585938 " fill-opacity="1" fill-rule="nonzero"/></g></svg>