<svg xmlns="http://www.w3.org/2000/svg" xmlns:xlink="http://www.w3.org/1999/xlink" width="5000" zoomAndPan="magnify" viewBox="0 0 3750 749.999995" height="1000" preserveAspectRatio="xMidYMid meet" version="1.0"><defs><g/><clipPath id="76d55db807"><path d="M 1837 114.078125 L 2109.921875 114.078125 L 2109.921875 623 L 1837 623 Z M 1837 114.078125 " clip-rule="nonzero"/></clipPath></defs><g fill="#000000" fill-opacity="1"><g transform="translate(3.097981, 616.838807)"><g><path d="M 246.777344 -340.421875 C 246.777344 -366.65625 238.4375 -385.824219 221.761719 -397.921875 C 205.085938 -410.023438 178.855469 -416.074219 143.0625 -416.074219 L 102.492188 -416.074219 L 102.492188 -269.347656 L 143.0625 -269.347656 C 179.261719 -269.347656 205.597656 -274.941406 222.066406 -286.125 C 238.539062 -297.3125 246.777344 -315.410156 246.777344 -340.421875 Z M 329.136719 0 L 258.0625 0 L 119.269531 -219.933594 L 102.492188 -219.933594 L 102.492188 0 L 43.621094 0 L 43.621094 -470.980469 L 150.078125 -470.980469 C 200.511719 -470.980469 238.996094 -459.996094 265.535156 -438.035156 C 292.074219 -416.074219 305.34375 -384.550781 305.34375 -343.472656 C 305.34375 -306.867188 294.363281 -277.789062 272.398438 -256.230469 C 250.4375 -234.675781 220.441406 -223.390625 182.414062 -222.375 Z M 329.136719 0 "/></g></g></g><g fill="#000000" fill-opacity="1"><g transform="translate(342.300776, 616.838807)"><g><path d="M 295.582031 -186.074219 L 219.933594 -357.199219 L 144.285156 -186.074219 Z M 442.304688 0 L 377.332031 0 L 317.238281 -136.046875 L 121.710938 -136.046875 L 61.921875 0 L -3.050781 0 L 219.933594 -484.707031 Z M 442.304688 0 "/></g></g></g><g fill="#000000" fill-opacity="1"><g transform="translate(781.556228, 616.838807)"><g><path d="M 402.957031 -470.980469 L 199.191406 13.726562 L -3.050781 -470.980469 L 60.09375 -470.980469 L 199.191406 -126.285156 L 339.8125 -470.980469 Z M 402.957031 -470.980469 "/></g></g></g><g fill="#000000" fill-opacity="1"><g transform="translate(1181.461752, 616.838807)"><g><path d="M 291.007812 0 L 43.621094 0 L 43.621094 -470.980469 L 291.007812 -470.980469 L 291.007812 -416.074219 L 102.492188 -416.074219 L 102.492188 -278.5 L 291.007812 -278.5 L 291.007812 -223.59375 L 102.492188 -223.59375 L 102.492188 -54.90625 L 291.007812 -54.90625 Z M 291.007812 0 "/></g></g></g><g fill="#000000" fill-opacity="1"><g transform="translate(1506.937805, 616.838807)"><g><path d="M 263.554688 -223.59375 L 105.542969 -223.59375 L 105.542969 0 L 46.976562 0 L 46.976562 -470.980469 L 263.554688 -470.980469 L 263.554688 -416.074219 L 105.542969 -416.074219 L 105.542969 -278.5 L 263.554688 -278.5 Z M 263.554688 -223.59375 "/></g></g></g><path fill="#000000" d="M 2015.34375 92.113281 C 2015.34375 93.140625 2015.292969 94.164062 2015.191406 95.1875 C 2015.089844 96.207031 2014.941406 97.222656 2014.742188 98.230469 C 2014.539062 99.234375 2014.292969 100.230469 2013.992188 101.214844 C 2013.695312 102.195312 2013.351562 103.160156 2012.957031 104.109375 C 2012.566406 105.058594 2012.128906 105.984375 2011.644531 106.890625 C 2011.160156 107.796875 2010.632812 108.675781 2010.0625 109.53125 C 2009.496094 110.382812 2008.882812 111.207031 2008.234375 112 C 2007.582031 112.792969 2006.894531 113.554688 2006.167969 114.28125 C 2005.445312 115.003906 2004.683594 115.695312 2003.890625 116.34375 C 2003.097656 116.996094 2002.277344 117.609375 2001.421875 118.179688 C 2000.570312 118.75 1999.691406 119.277344 1998.785156 119.757812 C 1997.882812 120.242188 1996.957031 120.683594 1996.007812 121.074219 C 1995.058594 121.46875 1994.09375 121.8125 1993.113281 122.113281 C 1992.132812 122.410156 1991.136719 122.660156 1990.132812 122.859375 C 1989.125 123.058594 1988.113281 123.210938 1987.089844 123.308594 C 1986.070312 123.410156 1985.046875 123.460938 1984.023438 123.460938 C 1982.996094 123.460938 1981.972656 123.410156 1980.953125 123.308594 C 1979.929688 123.210938 1978.917969 123.058594 1977.910156 122.859375 C 1976.90625 122.660156 1975.910156 122.410156 1974.929688 122.113281 C 1973.949219 121.8125 1972.984375 121.46875 1972.035156 121.074219 C 1971.085938 120.683594 1970.160156 120.242188 1969.257812 119.757812 C 1968.351562 119.277344 1967.472656 118.75 1966.621094 118.179688 C 1965.765625 117.609375 1964.945312 116.996094 1964.152344 116.34375 C 1963.359375 115.695312 1962.597656 115.003906 1961.875 114.28125 C 1961.148438 113.554688 1960.460938 112.792969 1959.808594 112 C 1959.160156 111.207031 1958.546875 110.382812 1957.980469 109.53125 C 1957.410156 108.675781 1956.882812 107.796875 1956.398438 106.890625 C 1955.914062 105.984375 1955.476562 105.058594 1955.085938 104.109375 C 1954.691406 103.160156 1954.347656 102.195312 1954.050781 101.214844 C 1953.75 100.230469 1953.503906 99.234375 1953.300781 98.230469 C 1953.101562 97.222656 1952.953125 96.207031 1952.851562 95.1875 C 1952.75 94.164062 1952.699219 93.140625 1952.699219 92.113281 C 1952.699219 91.085938 1952.75 90.0625 1952.851562 89.042969 C 1952.953125 88.019531 1953.101562 87.003906 1953.300781 86 C 1953.503906 84.992188 1953.75 83.996094 1954.050781 83.015625 C 1954.347656 82.03125 1954.691406 81.066406 1955.085938 80.117188 C 1955.476562 79.167969 1955.914062 78.242188 1956.398438 77.335938 C 1956.882812 76.429688 1957.410156 75.550781 1957.980469 74.699219 C 1958.546875 73.84375 1959.160156 73.019531 1959.808594 72.226562 C 1960.460938 71.433594 1961.148438 70.675781 1961.875 69.949219 C 1962.597656 69.222656 1963.359375 68.535156 1964.152344 67.882812 C 1964.945312 67.230469 1965.765625 66.621094 1966.621094 66.050781 C 1967.472656 65.480469 1968.351562 64.953125 1969.257812 64.46875 C 1970.160156 63.984375 1971.085938 63.546875 1972.035156 63.152344 C 1972.984375 62.761719 1973.949219 62.414062 1974.929688 62.117188 C 1975.910156 61.816406 1976.90625 61.570312 1977.910156 61.367188 C 1978.917969 61.167969 1979.929688 61.019531 1980.953125 60.917969 C 1981.972656 60.816406 1982.996094 60.765625 1984.023438 60.765625 C 1985.046875 60.769531 1986.070312 60.820312 1987.089844 60.921875 C 1988.109375 61.023438 1989.125 61.175781 1990.128906 61.375 C 1991.136719 61.578125 1992.128906 61.828125 1993.109375 62.125 C 1994.089844 62.425781 1995.054688 62.769531 1996 63.164062 C 1996.949219 63.554688 1997.875 63.996094 1998.777344 64.480469 C 1999.683594 64.964844 2000.5625 65.492188 2001.414062 66.0625 C 2002.265625 66.632812 2003.089844 67.242188 2003.882812 67.894531 C 2004.671875 68.546875 2005.433594 69.234375 2006.15625 69.960938 C 2006.882812 70.683594 2007.570312 71.445312 2008.222656 72.238281 C 2008.871094 73.03125 2009.480469 73.855469 2010.050781 74.707031 C 2010.621094 75.5625 2011.148438 76.441406 2011.632812 77.34375 C 2012.117188 78.25 2012.554688 79.175781 2012.949219 80.125 C 2013.339844 81.070312 2013.6875 82.035156 2013.984375 83.019531 C 2014.285156 84 2014.535156 84.996094 2014.734375 86 C 2014.933594 87.007812 2015.085938 88.019531 2015.1875 89.042969 C 2015.289062 90.0625 2015.339844 91.085938 2015.34375 92.113281 Z M 2097.4375 6.953125 C 2097.046875 6.433594 2096.609375 5.957031 2096.128906 5.523438 C 2095.644531 5.089844 2095.121094 4.707031 2094.5625 4.375 C 2094.003906 4.046875 2093.417969 3.773438 2092.808594 3.554688 C 2092.195312 3.339844 2091.566406 3.1875 2090.921875 3.09375 C 2090.28125 3.003906 2089.636719 2.972656 2088.988281 3.007812 C 2088.335938 3.046875 2087.699219 3.144531 2087.070312 3.304688 C 2086.441406 3.464844 2085.832031 3.6875 2085.246094 3.96875 C 2084.664062 4.25 2084.109375 4.585938 2083.589844 4.976562 C 2083.070312 5.363281 2082.59375 5.800781 2082.160156 6.285156 C 2081.726562 6.769531 2081.34375 7.292969 2081.015625 7.851562 C 2080.683594 8.410156 2080.410156 8.996094 2080.195312 9.609375 C 2079.980469 10.222656 2079.824219 10.851562 2079.734375 11.496094 C 2079.640625 12.136719 2079.613281 12.785156 2079.648438 13.433594 C 2079.683594 14.082031 2079.78125 14.722656 2079.941406 15.351562 C 2080.105469 15.980469 2080.324219 16.589844 2080.605469 17.175781 C 2080.886719 17.761719 2081.222656 18.3125 2081.613281 18.832031 C 2083.574219 21.453125 2085.429688 24.148438 2087.175781 26.917969 C 2088.921875 29.6875 2090.554688 32.523438 2092.070312 35.425781 C 2093.589844 38.328125 2094.988281 41.285156 2096.269531 44.300781 C 2097.550781 47.3125 2098.707031 50.375 2099.742188 53.480469 C 2100.777344 56.589844 2101.683594 59.730469 2102.464844 62.914062 C 2103.25 66.09375 2103.902344 69.300781 2104.425781 72.53125 C 2104.949219 75.765625 2105.34375 79.011719 2105.605469 82.277344 C 2105.867188 85.542969 2106 88.8125 2106 92.085938 C 2106 95.363281 2105.867188 98.632812 2105.605469 101.898438 C 2105.34375 105.160156 2104.949219 108.410156 2104.425781 111.644531 C 2103.902344 114.875 2103.25 118.082031 2102.464844 121.261719 C 2101.683594 124.441406 2100.777344 127.585938 2099.742188 130.695312 C 2098.707031 133.800781 2097.550781 136.863281 2096.269531 139.875 C 2094.988281 142.890625 2093.589844 145.847656 2092.070312 148.75 C 2090.554688 151.648438 2088.921875 154.484375 2087.175781 157.253906 C 2085.429688 160.023438 2083.574219 162.71875 2081.613281 165.339844 C 2081.222656 165.859375 2080.886719 166.414062 2080.605469 167 C 2080.324219 167.585938 2080.105469 168.195312 2079.941406 168.824219 C 2079.78125 169.453125 2079.683594 170.09375 2079.648438 170.742188 C 2079.613281 171.390625 2079.640625 172.039062 2079.734375 172.679688 C 2079.824219 173.324219 2079.980469 173.953125 2080.195312 174.566406 C 2080.410156 175.179688 2080.683594 175.765625 2081.015625 176.324219 C 2081.34375 176.882812 2081.726562 177.40625 2082.160156 177.890625 C 2082.59375 178.371094 2083.070312 178.808594 2083.589844 179.199219 C 2084.109375 179.589844 2084.664062 179.925781 2085.246094 180.207031 C 2085.832031 180.488281 2086.441406 180.707031 2087.070312 180.871094 C 2087.699219 181.03125 2088.335938 181.128906 2088.988281 181.164062 C 2089.636719 181.199219 2090.28125 181.171875 2090.921875 181.082031 C 2091.566406 180.988281 2092.195312 180.835938 2092.808594 180.617188 C 2093.417969 180.402344 2094.003906 180.128906 2094.5625 179.796875 C 2095.121094 179.46875 2095.644531 179.085938 2096.128906 178.652344 C 2096.609375 178.21875 2097.046875 177.738281 2097.4375 177.21875 C 2099.71875 174.175781 2101.875 171.042969 2103.902344 167.824219 C 2105.933594 164.605469 2107.828125 161.308594 2109.59375 157.9375 C 2111.355469 154.566406 2112.984375 151.128906 2114.472656 147.625 C 2115.960938 144.121094 2117.304688 140.566406 2118.507812 136.953125 C 2119.707031 133.34375 2120.765625 129.691406 2121.671875 125.992188 C 2122.582031 122.296875 2123.339844 118.570312 2123.949219 114.8125 C 2124.558594 111.058594 2125.015625 107.28125 2125.320312 103.488281 C 2125.625 99.695312 2125.777344 95.894531 2125.777344 92.085938 C 2125.777344 88.28125 2125.625 84.480469 2125.320312 80.6875 C 2125.015625 76.894531 2124.558594 73.117188 2123.949219 69.359375 C 2123.339844 65.605469 2122.582031 61.878906 2121.671875 58.179688 C 2120.765625 54.484375 2119.707031 50.832031 2118.507812 47.21875 C 2117.304688 43.609375 2115.960938 40.050781 2114.472656 36.550781 C 2112.984375 33.046875 2111.355469 29.609375 2109.59375 26.238281 C 2107.828125 22.867188 2105.933594 19.570312 2103.902344 16.351562 C 2101.875 13.132812 2099.71875 10 2097.4375 6.953125 Z M 1884.464844 5 C 1883.945312 4.613281 1883.394531 4.277344 1882.808594 3.996094 C 1882.222656 3.714844 1881.617188 3.492188 1880.988281 3.332031 C 1880.359375 3.171875 1879.71875 3.074219 1879.074219 3.035156 C 1878.425781 3 1877.777344 3.027344 1877.136719 3.121094 C 1876.492188 3.210938 1875.867188 3.363281 1875.253906 3.578125 C 1874.640625 3.792969 1874.054688 4.066406 1873.496094 4.398438 C 1872.9375 4.726562 1872.414062 5.109375 1871.929688 5.539062 C 1871.445312 5.972656 1871.007812 6.449219 1870.617188 6.96875 C 1868.335938 10.011719 1866.183594 13.144531 1864.152344 16.363281 C 1862.125 19.582031 1860.226562 22.878906 1858.460938 26.25 C 1856.699219 29.621094 1855.070312 33.058594 1853.582031 36.5625 C 1852.09375 40.066406 1850.75 43.621094 1849.546875 47.234375 C 1848.34375 50.84375 1847.289062 54.496094 1846.382812 58.195312 C 1845.472656 61.890625 1844.714844 65.617188 1844.105469 69.375 C 1843.496094 73.128906 1843.039062 76.90625 1842.734375 80.699219 C 1842.425781 84.496094 1842.273438 88.292969 1842.273438 92.101562 C 1842.273438 95.90625 1842.425781 99.707031 1842.734375 103.5 C 1843.039062 107.292969 1843.496094 111.070312 1844.105469 114.828125 C 1844.714844 118.585938 1845.472656 122.3125 1846.382812 126.007812 C 1847.289062 129.703125 1848.34375 133.355469 1849.546875 136.96875 C 1850.75 140.578125 1852.09375 144.136719 1853.582031 147.636719 C 1855.070312 151.140625 1856.699219 154.578125 1858.460938 157.949219 C 1860.226562 161.320312 1862.125 164.617188 1864.152344 167.835938 C 1866.183594 171.054688 1868.335938 174.1875 1870.617188 177.234375 C 1871.007812 177.753906 1871.445312 178.230469 1871.929688 178.664062 C 1872.414062 179.097656 1872.933594 179.480469 1873.492188 179.8125 C 1874.050781 180.144531 1874.636719 180.417969 1875.25 180.632812 C 1875.863281 180.847656 1876.488281 181 1877.132812 181.09375 C 1877.777344 181.183594 1878.421875 181.214844 1879.070312 181.179688 C 1879.71875 181.144531 1880.355469 181.042969 1880.984375 180.882812 C 1881.617188 180.722656 1882.222656 180.5 1882.808594 180.21875 C 1883.394531 179.9375 1883.945312 179.601562 1884.464844 179.214844 C 1884.984375 178.824219 1885.460938 178.386719 1885.894531 177.902344 C 1886.328125 177.417969 1886.710938 176.898438 1887.042969 176.335938 C 1887.375 175.777344 1887.648438 175.191406 1887.863281 174.578125 C 1888.078125 173.964844 1888.230469 173.335938 1888.324219 172.695312 C 1888.414062 172.050781 1888.441406 171.402344 1888.40625 170.753906 C 1888.371094 170.105469 1888.273438 169.464844 1888.113281 168.835938 C 1887.953125 168.207031 1887.730469 167.597656 1887.449219 167.011719 C 1887.167969 166.425781 1886.832031 165.875 1886.445312 165.355469 C 1884.480469 162.734375 1882.625 160.039062 1880.878906 157.269531 C 1879.132812 154.5 1877.5 151.664062 1875.984375 148.761719 C 1874.464844 145.859375 1873.066406 142.902344 1871.785156 139.890625 C 1870.503906 136.875 1869.347656 133.816406 1868.3125 130.707031 C 1867.277344 127.601562 1866.367188 124.457031 1865.585938 121.277344 C 1864.804688 118.097656 1864.152344 114.890625 1863.628906 111.65625 C 1863.105469 108.421875 1862.710938 105.175781 1862.449219 101.910156 C 1862.183594 98.644531 1862.054688 95.375 1862.054688 92.101562 C 1862.054688 88.824219 1862.183594 85.554688 1862.449219 82.289062 C 1862.710938 79.027344 1863.105469 75.777344 1863.628906 72.542969 C 1864.152344 69.3125 1864.804688 66.105469 1865.585938 62.925781 C 1866.367188 59.746094 1867.277344 56.601562 1868.3125 53.492188 C 1869.347656 50.386719 1870.503906 47.324219 1871.785156 44.3125 C 1873.066406 41.296875 1874.464844 38.339844 1875.984375 35.4375 C 1877.5 32.539062 1879.132812 29.703125 1880.878906 26.933594 C 1882.625 24.164062 1884.480469 21.46875 1886.445312 18.847656 C 1886.832031 18.328125 1887.167969 17.773438 1887.445312 17.1875 C 1887.726562 16.601562 1887.949219 15.996094 1888.109375 15.367188 C 1888.269531 14.738281 1888.367188 14.097656 1888.402344 13.449219 C 1888.4375 12.804688 1888.410156 12.15625 1888.316406 11.515625 C 1888.226562 10.871094 1888.070312 10.246094 1887.855469 9.632812 C 1887.640625 9.019531 1887.367188 8.433594 1887.039062 7.875 C 1886.707031 7.316406 1886.324219 6.796875 1885.894531 6.3125 C 1885.460938 5.828125 1884.984375 5.390625 1884.464844 5 Z M 2041.402344 36.679688 C 2040.882812 37.066406 2040.40625 37.503906 2039.972656 37.988281 C 2039.535156 38.472656 2039.152344 38.992188 2038.824219 39.550781 C 2038.492188 40.109375 2038.21875 40.699219 2038 41.308594 C 2037.785156 41.921875 2037.628906 42.550781 2037.539062 43.195312 C 2037.445312 43.839844 2037.417969 44.484375 2037.453125 45.132812 C 2037.484375 45.785156 2037.582031 46.421875 2037.746094 47.050781 C 2037.90625 47.683594 2038.125 48.289062 2038.40625 48.878906 C 2038.6875 49.464844 2039.019531 50.015625 2039.410156 50.539062 C 2040.523438 52.023438 2041.578125 53.554688 2042.570312 55.125 C 2043.5625 56.699219 2044.488281 58.308594 2045.351562 59.953125 C 2046.210938 61.601562 2047.007812 63.277344 2047.734375 64.988281 C 2048.460938 66.699219 2049.117188 68.4375 2049.703125 70.199219 C 2050.292969 71.964844 2050.808594 73.75 2051.25 75.554688 C 2051.695312 77.359375 2052.066406 79.179688 2052.363281 81.015625 C 2052.660156 82.847656 2052.886719 84.691406 2053.035156 86.546875 C 2053.183594 88.398438 2053.257812 90.253906 2053.257812 92.113281 C 2053.257812 93.972656 2053.183594 95.828125 2053.035156 97.683594 C 2052.886719 99.535156 2052.660156 101.378906 2052.363281 103.214844 C 2052.066406 105.046875 2051.695312 106.867188 2051.25 108.671875 C 2050.808594 110.480469 2050.292969 112.261719 2049.703125 114.027344 C 2049.117188 115.789062 2048.460938 117.527344 2047.734375 119.238281 C 2047.007812 120.949219 2046.210938 122.628906 2045.351562 124.273438 C 2044.488281 125.921875 2043.5625 127.53125 2042.570312 129.101562 C 2041.578125 130.671875 2040.523438 132.203125 2039.410156 133.691406 C 2039.023438 134.210938 2038.6875 134.761719 2038.40625 135.347656 C 2038.128906 135.933594 2037.90625 136.542969 2037.746094 137.171875 C 2037.585938 137.800781 2037.488281 138.441406 2037.453125 139.089844 C 2037.421875 139.738281 2037.449219 140.382812 2037.542969 141.027344 C 2037.632812 141.667969 2037.789062 142.296875 2038.003906 142.910156 C 2038.21875 143.519531 2038.492188 144.105469 2038.824219 144.664062 C 2039.152344 145.222656 2039.535156 145.746094 2039.96875 146.230469 C 2040.402344 146.710938 2040.878906 147.148438 2041.398438 147.539062 C 2041.917969 147.929688 2042.46875 148.261719 2043.054688 148.542969 C 2043.636719 148.824219 2044.246094 149.046875 2044.875 149.207031 C 2045.503906 149.367188 2046.140625 149.46875 2046.789062 149.503906 C 2047.4375 149.539062 2048.082031 149.511719 2048.722656 149.417969 C 2049.367188 149.328125 2049.992188 149.175781 2050.605469 148.960938 C 2051.21875 148.746094 2051.804688 148.472656 2052.363281 148.140625 C 2052.921875 147.8125 2053.441406 147.429688 2053.925781 146.996094 C 2054.410156 146.5625 2054.847656 146.089844 2055.234375 145.570312 C 2056.667969 143.65625 2058.023438 141.691406 2059.296875 139.667969 C 2060.570312 137.648438 2061.761719 135.578125 2062.871094 133.460938 C 2063.980469 131.34375 2065 129.1875 2065.933594 126.988281 C 2066.871094 124.789062 2067.714844 122.554688 2068.46875 120.285156 C 2069.222656 118.019531 2069.886719 115.726562 2070.457031 113.40625 C 2071.027344 111.082031 2071.503906 108.742188 2071.886719 106.382812 C 2072.269531 104.023438 2072.558594 101.65625 2072.75 99.273438 C 2072.941406 96.890625 2073.035156 94.503906 2073.035156 92.113281 C 2073.035156 89.722656 2072.941406 87.335938 2072.75 84.957031 C 2072.558594 82.574219 2072.269531 80.203125 2071.886719 77.84375 C 2071.503906 75.484375 2071.027344 73.144531 2070.457031 70.824219 C 2069.886719 68.503906 2069.222656 66.207031 2068.46875 63.941406 C 2067.714844 61.671875 2066.871094 59.441406 2065.933594 57.242188 C 2065 55.042969 2063.980469 52.882812 2062.871094 50.765625 C 2061.761719 48.648438 2060.570312 46.578125 2059.296875 44.558594 C 2058.023438 42.539062 2056.667969 40.570312 2055.234375 38.660156 C 2054.84375 38.140625 2054.40625 37.664062 2053.921875 37.230469 C 2053.4375 36.796875 2052.917969 36.414062 2052.359375 36.082031 C 2051.796875 35.753906 2051.210938 35.480469 2050.597656 35.261719 C 2049.984375 35.046875 2049.359375 34.894531 2048.714844 34.800781 C 2048.070312 34.710938 2047.425781 34.683594 2046.777344 34.71875 C 2046.128906 34.753906 2045.488281 34.851562 2044.859375 35.011719 C 2044.230469 35.171875 2043.621094 35.394531 2043.035156 35.675781 C 2042.449219 35.953125 2041.894531 36.289062 2041.375 36.679688 Z M 1926.667969 36.679688 C 1926.148438 36.289062 1925.59375 35.957031 1925.007812 35.675781 C 1924.425781 35.394531 1923.816406 35.175781 1923.1875 35.015625 C 1922.558594 34.851562 1921.921875 34.753906 1921.273438 34.71875 C 1920.625 34.683594 1919.980469 34.710938 1919.339844 34.804688 C 1918.695312 34.894531 1918.070312 35.046875 1917.457031 35.261719 C 1916.84375 35.476562 1916.257812 35.75 1915.699219 36.078125 C 1915.140625 36.40625 1914.617188 36.789062 1914.132812 37.21875 C 1913.648438 37.652344 1913.210938 38.128906 1912.820312 38.644531 C 1911.386719 40.558594 1910.035156 42.523438 1908.757812 44.546875 C 1907.484375 46.566406 1906.292969 48.636719 1905.183594 50.753906 C 1904.078125 52.871094 1903.054688 55.027344 1902.121094 57.226562 C 1901.1875 59.425781 1900.34375 61.660156 1899.585938 63.925781 C 1898.832031 66.195312 1898.167969 68.488281 1897.597656 70.808594 C 1897.027344 73.128906 1896.550781 75.472656 1896.167969 77.828125 C 1895.785156 80.1875 1895.5 82.558594 1895.308594 84.941406 C 1895.117188 87.324219 1895.019531 89.710938 1895.019531 92.101562 C 1895.019531 94.492188 1895.117188 96.875 1895.308594 99.257812 C 1895.5 101.640625 1895.785156 104.011719 1896.167969 106.371094 C 1896.550781 108.730469 1897.027344 111.070312 1897.597656 113.390625 C 1898.167969 115.710938 1898.832031 118.007812 1899.585938 120.273438 C 1900.34375 122.539062 1901.1875 124.773438 1902.121094 126.972656 C 1903.054688 129.171875 1904.078125 131.332031 1905.183594 133.449219 C 1906.292969 135.566406 1907.484375 137.636719 1908.757812 139.65625 C 1910.035156 141.675781 1911.386719 143.644531 1912.820312 145.554688 C 1913.210938 146.074219 1913.648438 146.550781 1914.128906 146.984375 C 1914.613281 147.417969 1915.136719 147.800781 1915.695312 148.128906 C 1916.253906 148.460938 1916.839844 148.734375 1917.449219 148.949219 C 1918.0625 149.164062 1918.691406 149.316406 1919.332031 149.410156 C 1919.976562 149.5 1920.621094 149.527344 1921.269531 149.492188 C 1921.917969 149.457031 1922.554688 149.359375 1923.183594 149.195312 C 1923.8125 149.035156 1924.417969 148.8125 1925.003906 148.535156 C 1925.589844 148.253906 1926.140625 147.917969 1926.660156 147.527344 C 1927.179688 147.136719 1927.65625 146.699219 1928.089844 146.21875 C 1928.523438 145.734375 1928.90625 145.210938 1929.234375 144.652344 C 1929.566406 144.09375 1929.839844 143.507812 1930.054688 142.898438 C 1930.269531 142.285156 1930.425781 141.65625 1930.515625 141.011719 C 1930.609375 140.371094 1930.636719 139.722656 1930.601562 139.074219 C 1930.566406 138.425781 1930.46875 137.789062 1930.308594 137.160156 C 1930.148438 136.53125 1929.929688 135.921875 1929.648438 135.335938 C 1929.367188 134.75 1929.035156 134.195312 1928.644531 133.675781 C 1927.53125 132.191406 1926.480469 130.660156 1925.488281 129.085938 C 1924.496094 127.515625 1923.570312 125.90625 1922.710938 124.257812 C 1921.847656 122.613281 1921.054688 120.933594 1920.328125 119.222656 C 1919.601562 117.511719 1918.941406 115.777344 1918.355469 114.011719 C 1917.769531 112.25 1917.253906 110.464844 1916.808594 108.660156 C 1916.367188 106.855469 1915.996094 105.035156 1915.699219 103.199219 C 1915.402344 101.363281 1915.179688 99.519531 1915.027344 97.667969 C 1914.878906 95.816406 1914.804688 93.960938 1914.804688 92.101562 C 1914.804688 90.242188 1914.878906 88.386719 1915.027344 86.53125 C 1915.179688 84.679688 1915.402344 82.835938 1915.699219 81 C 1915.996094 79.167969 1916.367188 77.347656 1916.808594 75.542969 C 1917.253906 73.738281 1917.769531 71.953125 1918.355469 70.1875 C 1918.941406 68.425781 1919.601562 66.6875 1920.328125 64.976562 C 1921.054688 63.265625 1921.847656 61.589844 1922.710938 59.941406 C 1923.570312 58.296875 1924.496094 56.6875 1925.488281 55.113281 C 1926.480469 53.542969 1927.53125 52.011719 1928.644531 50.523438 C 1929.035156 50.003906 1929.367188 49.453125 1929.648438 48.867188 C 1929.929688 48.28125 1930.148438 47.671875 1930.308594 47.042969 C 1930.46875 46.414062 1930.566406 45.777344 1930.601562 45.128906 C 1930.636719 44.480469 1930.609375 43.835938 1930.519531 43.191406 C 1930.425781 42.550781 1930.273438 41.921875 1930.058594 41.308594 C 1929.84375 40.695312 1929.570312 40.109375 1929.238281 39.550781 C 1928.910156 38.992188 1928.527344 38.472656 1928.09375 37.988281 C 1927.660156 37.503906 1927.1875 37.070312 1926.667969 36.679688 Z M 1926.667969 36.679688 " fill-opacity="1" fill-rule="nonzero"/><g clip-path="url(#76d55db807)"><path fill="#000000" d="M 1852.941406 610.917969 C 1821.296875 582.480469 1838.609375 536.15625 1890.84375 509.503906 C 1908.265625 500.613281 1921.117188 496.765625 1944.105469 497.445312 C 1958.050781 497.800781 1974.085938 505.84375 1974.085938 505.84375 C 1974.085938 403.570312 1973.699219 209.699219 1973.699219 114.132812 C 1979.363281 114.164062 1982.988281 114.097656 1990.917969 114.097656 C 1990.917969 119.71875 1990.84375 123.761719 1990.84375 128.746094 C 1990.84375 133.601562 1991.183594 136.753906 1991.65625 139.808594 C 1997.140625 175.488281 2005.128906 189.535156 2045.007812 233.636719 C 2095.449219 289.40625 2110.097656 323 2109.796875 367.613281 C 2109.519531 409.464844 2072.71875 499.097656 2064.351562 495.382812 C 2075.984375 464.023438 2091.675781 430.195312 2095.847656 401.882812 C 2100.949219 367.289062 2086.898438 318.460938 2064.289062 292.703125 C 2045.691406 271.519531 2002.863281 252.574219 1991.179688 252.574219 C 1991.179688 252.574219 1990.683594 458.605469 1990.683594 536.71875 C 1990.683594 550.167969 1978.503906 572.976562 1971.640625 581.175781 C 1940.34375 618.566406 1880.277344 635.496094 1852.933594 610.921875 Z M 1852.941406 610.917969 " fill-opacity="1" fill-rule="nonzero"/></g><g fill="#000000" fill-opacity="1"><g transform="translate(2152.378798, 612.231092)"><g><path d="M 446.535156 13.726562 L 102.484375 -343.441406 L 102.484375 0 L 43.617188 0 L 43.617188 -484.664062 L 387.972656 -128.105469 L 387.972656 -470.9375 L 446.535156 -470.9375 Z M 446.535156 13.726562 "/></g></g></g><g fill="#000000" fill-opacity="1"><g transform="translate(2642.809377, 612.231092)"><g><path d="M 337.953125 -235.46875 C 337.953125 -294.03125 321.378906 -338.765625 288.234375 -369.671875 C 255.089844 -400.582031 206.898438 -416.035156 143.660156 -416.035156 L 102.484375 -416.035156 L 102.484375 -54.902344 L 139.390625 -54.902344 C 206.898438 -54.902344 256.871094 -69.796875 289.304688 -99.585938 C 321.734375 -129.375 337.953125 -174.667969 337.953125 -235.46875 Z M 396.515625 -234.859375 C 396.515625 -157.792969 374.351562 -99.382812 330.023438 -59.628906 C 285.695312 -19.875 220.828125 0 135.425781 0 L 43.617188 0 L 43.617188 -470.9375 L 136.949219 -470.9375 C 220.523438 -470.9375 284.675781 -450.5 329.414062 -409.628906 C 374.148438 -368.757812 396.515625 -310.5 396.515625 -234.859375 Z M 396.515625 -234.859375 "/></g></g></g><g fill="#000000" fill-opacity="1"><g transform="translate(3058.211399, 612.231092)"><g><path d="M 290.980469 0 L 43.617188 0 L 43.617188 -470.9375 L 290.980469 -470.9375 L 290.980469 -416.035156 L 102.484375 -416.035156 L 102.484375 -278.476562 L 290.980469 -278.476562 L 290.980469 -223.574219 L 102.484375 -223.574219 L 102.484375 -54.902344 L 290.980469 -54.902344 Z M 290.980469 0 "/></g></g></g><g fill="#000000" fill-opacity="1"><g transform="translate(3383.64015, 612.231092)"><g><path d="M 246.753906 -340.394531 C 246.753906 -366.625 238.417969 -385.789062 221.742188 -397.886719 C 205.070312 -409.984375 178.839844 -416.035156 143.050781 -416.035156 L 102.484375 -416.035156 L 102.484375 -269.324219 L 143.050781 -269.324219 C 179.246094 -269.324219 205.578125 -274.917969 222.046875 -286.101562 C 238.519531 -297.285156 246.753906 -315.382812 246.753906 -340.394531 Z M 329.105469 0 L 258.039062 0 L 119.257812 -219.914062 L 102.484375 -219.914062 L 102.484375 0 L 43.617188 0 L 43.617188 -470.9375 L 150.066406 -470.9375 C 200.492188 -470.9375 238.976562 -459.957031 265.511719 -437.996094 C 292.046875 -416.035156 305.316406 -384.519531 305.316406 -343.441406 C 305.316406 -306.839844 294.335938 -277.761719 272.375 -256.210938 C 250.414062 -234.65625 220.421875 -223.371094 182.398438 -222.351562 Z M 329.105469 0 "/></g></g></g></svg>