<svg xmlns="http://www.w3.org/2000/svg" xmlns:xlink="http://www.w3.org/1999/xlink" width="500" zoomAndPan="magnify" viewBox="0 0 375 374.999991" height="500" preserveAspectRatio="xMidYMid meet" version="1.0"><path fill="currentColor" d="M 187.5 0 C 83.945312 0 0 83.945312 0 187.5 C 0 291.054688 83.945312 375 187.5 375 C 291.054688 375 375 291.054688 375 187.5 C 375 83.945312 291.054688 0 187.5 0 Z M 306.355469 106.933594 L 272.171875 106.933594 C 268.246094 90.445312 263.148438 75.285156 257.09375 61.878906 C 268.65625 68.308594 279.398438 76.378906 289.007812 85.992188 C 295.503906 92.488281 301.292969 99.503906 306.355469 106.933594 Z M 331.054688 187.5 C 331.054688 200.03125 329.449219 212.3125 326.355469 224.121094 L 279.457031 224.121094 C 280.628906 212.277344 281.25 200.035156 281.25 187.5 C 281.25 174.964844 280.628906 162.722656 279.457031 150.878906 L 326.355469 150.878906 C 329.449219 162.6875 331.054688 174.96875 331.054688 187.5 Z M 187.5 331.054688 C 183.691406 331.054688 172.082031 323.570312 160.515625 300.429688 C 155.722656 290.84375 151.609375 279.925781 148.246094 268.066406 L 226.753906 268.066406 C 223.390625 279.925781 219.277344 290.84375 214.484375 300.429688 C 202.914062 323.570312 191.308594 331.054688 187.5 331.054688 Z M 139.753906 224.121094 C 138.402344 212.222656 137.695312 199.929688 137.695312 187.5 C 137.695312 175.070312 138.402344 162.777344 139.753906 150.878906 L 235.246094 150.878906 C 236.597656 162.777344 237.304688 175.070312 237.304688 187.5 C 237.304688 199.929688 236.597656 212.222656 235.246094 224.121094 Z M 43.945312 187.5 C 43.945312 174.96875 45.550781 162.6875 48.644531 150.878906 L 95.542969 150.878906 C 94.371094 162.722656 93.75 174.964844 93.75 187.5 C 93.75 200.035156 94.371094 212.277344 95.542969 224.121094 L 48.644531 224.121094 C 45.550781 212.3125 43.945312 200.03125 43.945312 187.5 Z M 187.5 43.945312 C 191.308594 43.945312 202.914062 51.429688 214.484375 74.570312 C 219.277344 84.15625 223.390625 95.074219 226.753906 106.933594 L 148.246094 106.933594 C 151.609375 95.074219 155.722656 84.15625 160.515625 74.570312 C 172.082031 51.429688 183.691406 43.945312 187.5 43.945312 Z M 117.90625 61.878906 C 111.851562 75.285156 106.753906 90.445312 102.824219 106.933594 L 68.644531 106.933594 C 73.707031 99.503906 79.496094 92.488281 85.992188 85.992188 C 95.605469 76.378906 106.34375 68.308594 117.90625 61.878906 Z M 68.644531 268.066406 L 102.824219 268.066406 C 106.753906 284.554688 111.851562 299.714844 117.90625 313.121094 C 106.34375 306.691406 95.601562 298.621094 85.992188 289.007812 C 79.496094 282.511719 73.707031 275.496094 68.644531 268.066406 Z M 257.09375 313.121094 C 263.148438 299.714844 268.246094 284.554688 272.171875 268.066406 L 306.355469 268.066406 C 301.292969 275.496094 295.503906 282.511719 289.007812 289.007812 C 279.394531 298.621094 268.65625 306.691406 257.09375 313.121094 Z M 257.09375 313.121094 " fill-opacity="1" fill-rule="nonzero"/></svg>